  0
SECTION
  2
HEADER
  9
$ANGBASE
  50
0.0
  9
$ANGDIR
  70
  1
  9
$MEASUREMENT
  70
0
  0
ENDSEC
  0
SECTION
  2
TABLES
  0
TABLE
  2
LTYPE
  70
1
  0
LTYPE
  2
CONTINUOUS
  70
0
  3
Solid line
  72
65
  73
0
  40
0.0
  0
ENDTAB
  0
TABLE
  2
STYLE
  70
4
  0
STYLE
  2
KICAD
  70
0
  40
0
  41
1
  42
1
  50
0
  71
0
  3
isocp.shx
  0
STYLE
  2
KICADB
  70
0
  40
0
  41
1
  42
1
  50
0
  71
0
  3
isocp.shx
  0
STYLE
  2
KICADI
  70
0
  40
0
  41
1
  42
1
  50
15
  71
0
  3
isocp.shx
  0
STYLE
  2
KICADBI
  70
0
  40
0
  41
1
  42
1
  50
15
  71
0
  3
isocp.shx
  0
ENDTAB
  0
TABLE
  2
LAYER
  70
30
  0
LAYER
  2
BLACK
  70
0
  62
7
  6
CONTINUOUS
  0
LAYER
  2
GRAY1
  70
0
  62
251
  6
CONTINUOUS
  0
LAYER
  2
GRAY2
  70
0
  62
8
  6
CONTINUOUS
  0
LAYER
  2
GRAY3
  70
0
  62
9
  6
CONTINUOUS
  0
LAYER
  2
WHITE
  70
0
  62
7
  6
CONTINUOUS
  0
LAYER
  2
LYELLOW
  70
0
  62
51
  6
CONTINUOUS
  0
LAYER
  2
BLUE1
  70
0
  62
178
  6
CONTINUOUS
  0
LAYER
  2
GREEN1
  70
0
  62
98
  6
CONTINUOUS
  0
LAYER
  2
CYAN1
  70
0
  62
138
  6
CONTINUOUS
  0
LAYER
  2
RED1
  70
0
  62
18
  6
CONTINUOUS
  0
LAYER
  2
MAGENTA1
  70
0
  62
228
  6
CONTINUOUS
  0
LAYER
  2
BROWN1
  70
0
  62
58
  6
CONTINUOUS
  0
LAYER
  2
BLUE2
  70
0
  62
5
  6
CONTINUOUS
  0
LAYER
  2
GREEN2
  70
0
  62
3
  6
CONTINUOUS
  0
LAYER
  2
CYAN2
  70
0
  62
4
  6
CONTINUOUS
  0
LAYER
  2
RED2
  70
0
  62
1
  6
CONTINUOUS
  0
LAYER
  2
MAGENTA2
  70
0
  62
6
  6
CONTINUOUS
  0
LAYER
  2
BROWN2
  70
0
  62
54
  6
CONTINUOUS
  0
LAYER
  2
BLUE3
  70
0
  62
171
  6
CONTINUOUS
  0
LAYER
  2
GREEN3
  70
0
  62
91
  6
CONTINUOUS
  0
LAYER
  2
CYAN3
  70
0
  62
131
  6
CONTINUOUS
  0
LAYER
  2
RED3
  70
0
  62
11
  6
CONTINUOUS
  0
LAYER
  2
MAGENTA3
  70
0
  62
221
  6
CONTINUOUS
  0
LAYER
  2
YELLOW3
  70
0
  62
2
  6
CONTINUOUS
  0
LAYER
  2
BLUE4
  70
0
  62
5
  6
CONTINUOUS
  0
LAYER
  2
GREEN4
  70
0
  62
3
  6
CONTINUOUS
  0
LAYER
  2
CYAN4
  70
0
  62
4
  6
CONTINUOUS
  0
LAYER
  2
RED4
  70
0
  62
1
  6
CONTINUOUS
  0
LAYER
  2
MAGENTA4
  70
0
  62
6
  6
CONTINUOUS
  0
LAYER
  2
YELLOW4
  70
0
  62
2
  6
CONTINUOUS
  0
ENDTAB
  0
ENDSEC
  0
SECTION
  2
ENTITIES
0
LINE
8
Black
10
104.934
20
-127.721
11
105.19
21
-127.869
0
LINE
8
Black
10
105.19
20
-127.869
11
105.379
21
-128.095
0
LINE
8
Black
10
105.379
20
-128.095
11
105.48
21
-128.372
0
LINE
8
Black
10
105.48
20
-128.372
11
105.48
21
-128.668
0
LINE
8
Black
10
105.48
20
-128.668
11
105.379
21
-128.945
0
LINE
8
Black
10
105.379
20
-128.945
11
105.19
21
-129.171
0
LINE
8
Black
10
105.19
20
-129.171
11
104.934
21
-129.319
0
LINE
8
Black
10
104.934
20
-129.319
11
104.643
21
-129.37
0
LINE
8
Black
10
104.643
20
-129.37
11
104.637
21
-129.37
0
LINE
8
Black
10
104.637
20
-129.37
11
104.346
21
-129.319
0
LINE
8
Black
10
104.346
20
-129.319
11
104.09
21
-129.171
0
LINE
8
Black
10
104.09
20
-129.171
11
103.901
21
-128.945
0
LINE
8
Black
10
103.901
20
-128.945
11
103.8
21
-128.668
0
LINE
8
Black
10
103.8
20
-128.668
11
103.8
21
-128.372
0
LINE
8
Black
10
103.8
20
-128.372
11
103.901
21
-128.095
0
LINE
8
Black
10
103.901
20
-128.095
11
104.09
21
-127.869
0
LINE
8
Black
10
104.09
20
-127.869
11
104.346
21
-127.721
0
LINE
8
Black
10
104.346
20
-127.721
11
104.637
21
-127.67
0
LINE
8
Black
10
104.637
20
-127.67
11
104.643
21
-127.67
0
LINE
8
Black
10
104.643
20
-127.67
11
104.934
21
-127.721
0
LINE
8
Black
10
82.39
20
-127.78
11
80.69
21
-127.78
0
LINE
8
Black
10
80.69
20
-127.78
11
80.69
21
-126.08
0
LINE
8
Black
10
80.69
20
-126.08
11
82.39
21
-126.08
0
LINE
8
Black
10
82.39
20
-126.08
11
82.39
21
-127.78
0
LINE
8
Black
10
89.585
20
-126.191
11
89.8111
21
-126.38
0
LINE
8
Black
10
89.8111
20
-126.38
11
89.9587
21
-126.636
0
LINE
8
Black
10
89.9587
20
-126.636
11
90.01
21
-126.927
0
LINE
8
Black
10
90.01
20
-126.927
11
90.01
21
-126.933
0
LINE
8
Black
10
90.01
20
-126.933
11
89.9587
21
-127.224
0
LINE
8
Black
10
89.9587
20
-127.224
11
89.8111
21
-127.48
0
LINE
8
Black
10
89.8111
20
-127.48
11
89.585
21
-127.669
0
LINE
8
Black
10
89.585
20
-127.669
11
89.3076
21
-127.77
0
LINE
8
Black
10
89.3076
20
-127.77
11
89.0124
21
-127.77
0
LINE
8
Black
10
89.0124
20
-127.77
11
88.735
21
-127.669
0
LINE
8
Black
10
88.735
20
-127.669
11
88.5089
21
-127.48
0
LINE
8
Black
10
88.5089
20
-127.48
11
88.3613
21
-127.224
0
LINE
8
Black
10
88.3613
20
-127.224
11
88.31
21
-126.933
0
LINE
8
Black
10
88.31
20
-126.933
11
88.31
21
-126.927
0
LINE
8
Black
10
88.31
20
-126.927
11
88.3613
21
-126.636
0
LINE
8
Black
10
88.3613
20
-126.636
11
88.5089
21
-126.38
0
LINE
8
Black
10
88.5089
20
-126.38
11
88.735
21
-126.191
0
LINE
8
Black
10
88.735
20
-126.191
11
89.0124
21
-126.09
0
LINE
8
Black
10
89.0124
20
-126.09
11
89.3076
21
-126.09
0
LINE
8
Black
10
89.3076
20
-126.09
11
89.585
21
-126.191
0
LINE
8
Black
10
87.045
20
-126.191
11
87.2711
21
-126.38
0
LINE
8
Black
10
87.2711
20
-126.38
11
87.4187
21
-126.636
0
LINE
8
Black
10
87.4187
20
-126.636
11
87.47
21
-126.927
0
LINE
8
Black
10
87.47
20
-126.927
11
87.47
21
-126.933
0
LINE
8
Black
10
87.47
20
-126.933
11
87.4187
21
-127.224
0
LINE
8
Black
10
87.4187
20
-127.224
11
87.2711
21
-127.48
0
LINE
8
Black
10
87.2711
20
-127.48
11
87.045
21
-127.669
0
LINE
8
Black
10
87.045
20
-127.669
11
86.7676
21
-127.77
0
LINE
8
Black
10
86.7676
20
-127.77
11
86.4724
21
-127.77
0
LINE
8
Black
10
86.4724
20
-127.77
11
86.195
21
-127.669
0
LINE
8
Black
10
86.195
20
-127.669
11
85.9689
21
-127.48
0
LINE
8
Black
10
85.9689
20
-127.48
11
85.8213
21
-127.224
0
LINE
8
Black
10
85.8213
20
-127.224
11
85.77
21
-126.933
0
LINE
8
Black
10
85.77
20
-126.933
11
85.77
21
-126.927
0
LINE
8
Black
10
85.77
20
-126.927
11
85.8213
21
-126.636
0
LINE
8
Black
10
85.8213
20
-126.636
11
85.9689
21
-126.38
0
LINE
8
Black
10
85.9689
20
-126.38
11
86.195
21
-126.191
0
LINE
8
Black
10
86.195
20
-126.191
11
86.4724
21
-126.09
0
LINE
8
Black
10
86.4724
20
-126.09
11
86.7676
21
-126.09
0
LINE
8
Black
10
86.7676
20
-126.09
11
87.045
21
-126.191
0
LINE
8
Black
10
84.505
20
-126.191
11
84.7311
21
-126.38
0
LINE
8
Black
10
84.7311
20
-126.38
11
84.8787
21
-126.636
0
LINE
8
Black
10
84.8787
20
-126.636
11
84.93
21
-126.927
0
LINE
8
Black
10
84.93
20
-126.927
11
84.93
21
-126.933
0
LINE
8
Black
10
84.93
20
-126.933
11
84.8787
21
-127.224
0
LINE
8
Black
10
84.8787
20
-127.224
11
84.7311
21
-127.48
0
LINE
8
Black
10
84.7311
20
-127.48
11
84.505
21
-127.669
0
LINE
8
Black
10
84.505
20
-127.669
11
84.2276
21
-127.77
0
LINE
8
Black
10
84.2276
20
-127.77
11
83.9324
21
-127.77
0
LINE
8
Black
10
83.9324
20
-127.77
11
83.655
21
-127.669
0
LINE
8
Black
10
83.655
20
-127.669
11
83.4289
21
-127.48
0
LINE
8
Black
10
83.4289
20
-127.48
11
83.2813
21
-127.224
0
LINE
8
Black
10
83.2813
20
-127.224
11
83.23
21
-126.933
0
LINE
8
Black
10
83.23
20
-126.933
11
83.23
21
-126.927
0
LINE
8
Black
10
83.23
20
-126.927
11
83.2813
21
-126.636
0
LINE
8
Black
10
83.2813
20
-126.636
11
83.4289
21
-126.38
0
LINE
8
Black
10
83.4289
20
-126.38
11
83.655
21
-126.191
0
LINE
8
Black
10
83.655
20
-126.191
11
83.9324
21
-126.09
0
LINE
8
Black
10
83.9324
20
-126.09
11
84.2276
21
-126.09
0
LINE
8
Black
10
84.2276
20
-126.09
11
84.505
21
-126.191
0
LINE
8
Black
10
105.49
20
-126.83
11
103.79
21
-126.83
0
LINE
8
Black
10
103.79
20
-126.83
11
103.79
21
-125.13
0
LINE
8
Black
10
103.79
20
-125.13
11
105.49
21
-125.13
0
LINE
8
Black
10
105.49
20
-125.13
11
105.49
21
-126.83
0
LINE
8
Black
10
111.312
20
-120.041
11
111.542
21
-120.174
0
LINE
8
Black
10
111.542
20
-120.174
11
111.712
21
-120.378
0
LINE
8
Black
10
111.712
20
-120.378
11
111.803
21
-120.627
0
LINE
8
Black
10
111.803
20
-120.627
11
111.803
21
-120.893
0
LINE
8
Black
10
111.803
20
-120.893
11
111.712
21
-121.142
0
LINE
8
Black
10
111.712
20
-121.142
11
111.542
21
-121.346
0
LINE
8
Black
10
111.542
20
-121.346
11
111.312
21
-121.479
0
LINE
8
Black
10
111.312
20
-121.479
11
111.05
21
-121.525
0
LINE
8
Black
10
111.05
20
-121.525
11
110.788
21
-121.479
0
LINE
8
Black
10
110.788
20
-121.479
11
110.558
21
-121.346
0
LINE
8
Black
10
110.558
20
-121.346
11
110.388
21
-121.142
0
LINE
8
Black
10
110.388
20
-121.142
11
110.297
21
-120.893
0
LINE
8
Black
10
110.297
20
-120.893
11
110.297
21
-120.627
0
LINE
8
Black
10
110.297
20
-120.627
11
110.388
21
-120.378
0
LINE
8
Black
10
110.388
20
-120.378
11
110.558
21
-120.174
0
LINE
8
Black
10
110.558
20
-120.174
11
110.788
21
-120.041
0
LINE
8
Black
10
110.788
20
-120.041
11
111.05
21
-119.995
0
LINE
8
Black
10
111.05
20
-119.995
11
111.312
21
-120.041
0
LINE
8
Black
10
134.712
20
-120.041
11
134.942
21
-120.174
0
LINE
8
Black
10
134.942
20
-120.174
11
135.112
21
-120.378
0
LINE
8
Black
10
135.112
20
-120.378
11
135.203
21
-120.627
0
LINE
8
Black
10
135.203
20
-120.627
11
135.203
21
-120.893
0
LINE
8
Black
10
135.203
20
-120.893
11
135.112
21
-121.142
0
LINE
8
Black
10
135.112
20
-121.142
11
134.942
21
-121.346
0
LINE
8
Black
10
134.942
20
-121.346
11
134.712
21
-121.479
0
LINE
8
Black
10
134.712
20
-121.479
11
134.45
21
-121.525
0
LINE
8
Black
10
134.45
20
-121.525
11
134.188
21
-121.479
0
LINE
8
Black
10
134.188
20
-121.479
11
133.958
21
-121.346
0
LINE
8
Black
10
133.958
20
-121.346
11
133.788
21
-121.142
0
LINE
8
Black
10
133.788
20
-121.142
11
133.697
21
-120.893
0
LINE
8
Black
10
133.697
20
-120.893
11
133.697
21
-120.627
0
LINE
8
Black
10
133.697
20
-120.627
11
133.788
21
-120.378
0
LINE
8
Black
10
133.788
20
-120.378
11
133.958
21
-120.174
0
LINE
8
Black
10
133.958
20
-120.174
11
134.188
21
-120.041
0
LINE
8
Black
10
134.188
20
-120.041
11
134.45
21
-119.995
0
LINE
8
Black
10
134.45
20
-119.995
11
134.712
21
-120.041
0
LINE
8
Black
10
60.994
20
-117.441
11
61.2496
21
-117.589
0
LINE
8
Black
10
61.2496
20
-117.589
11
61.4394
21
-117.815
0
LINE
8
Black
10
61.4394
20
-117.815
11
61.5403
21
-118.092
0
LINE
8
Black
10
61.5403
20
-118.092
11
61.5403
21
-118.388
0
LINE
8
Black
10
61.5403
20
-118.388
11
61.4394
21
-118.665
0
LINE
8
Black
10
61.4394
20
-118.665
11
61.2496
21
-118.891
0
LINE
8
Black
10
61.2496
20
-118.891
11
60.994
21
-119.039
0
LINE
8
Black
10
60.994
20
-119.039
11
60.7032
21
-119.09
0
LINE
8
Black
10
60.7032
20
-119.09
11
60.6968
21
-119.09
0
LINE
8
Black
10
60.6968
20
-119.09
11
60.406
21
-119.039
0
LINE
8
Black
10
60.406
20
-119.039
11
60.1504
21
-118.891
0
LINE
8
Black
10
60.1504
20
-118.891
11
59.9606
21
-118.665
0
LINE
8
Black
10
59.9606
20
-118.665
11
59.8597
21
-118.388
0
LINE
8
Black
10
59.8597
20
-118.388
11
59.8597
21
-118.092
0
LINE
8
Black
10
59.8597
20
-118.092
11
59.9606
21
-117.815
0
LINE
8
Black
10
59.9606
20
-117.815
11
60.1504
21
-117.589
0
LINE
8
Black
10
60.1504
20
-117.589
11
60.406
21
-117.441
0
LINE
8
Black
10
60.406
20
-117.441
11
60.6968
21
-117.39
0
LINE
8
Black
10
60.6968
20
-117.39
11
60.7032
21
-117.39
0
LINE
8
Black
10
60.7032
20
-117.39
11
60.994
21
-117.441
0
LINE
8
Black
10
134.712
20
-117.501
11
134.942
21
-117.634
0
LINE
8
Black
10
134.942
20
-117.634
11
135.112
21
-117.838
0
LINE
8
Black
10
135.112
20
-117.838
11
135.203
21
-118.087
0
LINE
8
Black
10
135.203
20
-118.087
11
135.203
21
-118.353
0
LINE
8
Black
10
135.203
20
-118.353
11
135.112
21
-118.602
0
LINE
8
Black
10
135.112
20
-118.602
11
134.942
21
-118.806
0
LINE
8
Black
10
134.942
20
-118.806
11
134.712
21
-118.939
0
LINE
8
Black
10
134.712
20
-118.939
11
134.45
21
-118.985
0
LINE
8
Black
10
134.45
20
-118.985
11
134.188
21
-118.939
0
LINE
8
Black
10
134.188
20
-118.939
11
133.958
21
-118.806
0
LINE
8
Black
10
133.958
20
-118.806
11
133.788
21
-118.602
0
LINE
8
Black
10
133.788
20
-118.602
11
133.697
21
-118.353
0
LINE
8
Black
10
133.697
20
-118.353
11
133.697
21
-118.087
0
LINE
8
Black
10
133.697
20
-118.087
11
133.788
21
-117.838
0
LINE
8
Black
10
133.788
20
-117.838
11
133.958
21
-117.634
0
LINE
8
Black
10
133.958
20
-117.634
11
134.188
21
-117.501
0
LINE
8
Black
10
134.188
20
-117.501
11
134.45
21
-117.455
0
LINE
8
Black
10
134.45
20
-117.455
11
134.712
21
-117.501
0
LINE
8
Black
10
111.312
20
-117.501
11
111.542
21
-117.634
0
LINE
8
Black
10
111.542
20
-117.634
11
111.712
21
-117.838
0
LINE
8
Black
10
111.712
20
-117.838
11
111.803
21
-118.087
0
LINE
8
Black
10
111.803
20
-118.087
11
111.803
21
-118.353
0
LINE
8
Black
10
111.803
20
-118.353
11
111.712
21
-118.602
0
LINE
8
Black
10
111.712
20
-118.602
11
111.542
21
-118.806
0
LINE
8
Black
10
111.542
20
-118.806
11
111.312
21
-118.939
0
LINE
8
Black
10
111.312
20
-118.939
11
111.05
21
-118.985
0
LINE
8
Black
10
111.05
20
-118.985
11
110.788
21
-118.939
0
LINE
8
Black
10
110.788
20
-118.939
11
110.558
21
-118.806
0
LINE
8
Black
10
110.558
20
-118.806
11
110.388
21
-118.602
0
LINE
8
Black
10
110.388
20
-118.602
11
110.297
21
-118.353
0
LINE
8
Black
10
110.297
20
-118.353
11
110.297
21
-118.087
0
LINE
8
Black
10
110.297
20
-118.087
11
110.388
21
-117.838
0
LINE
8
Black
10
110.388
20
-117.838
11
110.558
21
-117.634
0
LINE
8
Black
10
110.558
20
-117.634
11
110.788
21
-117.501
0
LINE
8
Black
10
110.788
20
-117.501
11
111.05
21
-117.455
0
LINE
8
Black
10
111.05
20
-117.455
11
111.312
21
-117.501
0
LINE
8
Black
10
102.474
20
-117.121
11
102.73
21
-117.269
0
LINE
8
Black
10
102.73
20
-117.269
11
102.919
21
-117.495
0
LINE
8
Black
10
102.919
20
-117.495
11
103.02
21
-117.772
0
LINE
8
Black
10
103.02
20
-117.772
11
103.02
21
-118.068
0
LINE
8
Black
10
103.02
20
-118.068
11
102.919
21
-118.345
0
LINE
8
Black
10
102.919
20
-118.345
11
102.73
21
-118.571
0
LINE
8
Black
10
102.73
20
-118.571
11
102.474
21
-118.719
0
LINE
8
Black
10
102.474
20
-118.719
11
102.183
21
-118.77
0
LINE
8
Black
10
102.183
20
-118.77
11
102.177
21
-118.77
0
LINE
8
Black
10
102.177
20
-118.77
11
101.886
21
-118.719
0
LINE
8
Black
10
101.886
20
-118.719
11
101.63
21
-118.571
0
LINE
8
Black
10
101.63
20
-118.571
11
101.441
21
-118.345
0
LINE
8
Black
10
101.441
20
-118.345
11
101.34
21
-118.068
0
LINE
8
Black
10
101.34
20
-118.068
11
101.34
21
-117.772
0
LINE
8
Black
10
101.34
20
-117.772
11
101.441
21
-117.495
0
LINE
8
Black
10
101.441
20
-117.495
11
101.63
21
-117.269
0
LINE
8
Black
10
101.63
20
-117.269
11
101.886
21
-117.121
0
LINE
8
Black
10
101.886
20
-117.121
11
102.177
21
-117.07
0
LINE
8
Black
10
102.177
20
-117.07
11
102.183
21
-117.07
0
LINE
8
Black
10
102.183
20
-117.07
11
102.474
21
-117.121
0
LINE
8
Black
10
60.994
20
-114.901
11
61.2496
21
-115.049
0
LINE
8
Black
10
61.2496
20
-115.049
11
61.4394
21
-115.275
0
LINE
8
Black
10
61.4394
20
-115.275
11
61.5403
21
-115.552
0
LINE
8
Black
10
61.5403
20
-115.552
11
61.5403
21
-115.848
0
LINE
8
Black
10
61.5403
20
-115.848
11
61.4394
21
-116.125
0
LINE
8
Black
10
61.4394
20
-116.125
11
61.2496
21
-116.351
0
LINE
8
Black
10
61.2496
20
-116.351
11
60.994
21
-116.499
0
LINE
8
Black
10
60.994
20
-116.499
11
60.7032
21
-116.55
0
LINE
8
Black
10
60.7032
20
-116.55
11
60.6968
21
-116.55
0
LINE
8
Black
10
60.6968
20
-116.55
11
60.406
21
-116.499
0
LINE
8
Black
10
60.406
20
-116.499
11
60.1504
21
-116.351
0
LINE
8
Black
10
60.1504
20
-116.351
11
59.9606
21
-116.125
0
LINE
8
Black
10
59.9606
20
-116.125
11
59.8597
21
-115.848
0
LINE
8
Black
10
59.8597
20
-115.848
11
59.8597
21
-115.552
0
LINE
8
Black
10
59.8597
20
-115.552
11
59.9606
21
-115.275
0
LINE
8
Black
10
59.9606
20
-115.275
11
60.1504
21
-115.049
0
LINE
8
Black
10
60.1504
20
-115.049
11
60.406
21
-114.901
0
LINE
8
Black
10
60.406
20
-114.901
11
60.6968
21
-114.85
0
LINE
8
Black
10
60.6968
20
-114.85
11
60.7032
21
-114.85
0
LINE
8
Black
10
60.7032
20
-114.85
11
60.994
21
-114.901
0
LINE
8
Black
10
111.312
20
-114.961
11
111.542
21
-115.094
0
LINE
8
Black
10
111.542
20
-115.094
11
111.712
21
-115.298
0
LINE
8
Black
10
111.712
20
-115.298
11
111.803
21
-115.547
0
LINE
8
Black
10
111.803
20
-115.547
11
111.803
21
-115.813
0
LINE
8
Black
10
111.803
20
-115.813
11
111.712
21
-116.062
0
LINE
8
Black
10
111.712
20
-116.062
11
111.542
21
-116.266
0
LINE
8
Black
10
111.542
20
-116.266
11
111.312
21
-116.399
0
LINE
8
Black
10
111.312
20
-116.399
11
111.05
21
-116.445
0
LINE
8
Black
10
111.05
20
-116.445
11
110.788
21
-116.399
0
LINE
8
Black
10
110.788
20
-116.399
11
110.558
21
-116.266
0
LINE
8
Black
10
110.558
20
-116.266
11
110.388
21
-116.062
0
LINE
8
Black
10
110.388
20
-116.062
11
110.297
21
-115.813
0
LINE
8
Black
10
110.297
20
-115.813
11
110.297
21
-115.547
0
LINE
8
Black
10
110.297
20
-115.547
11
110.388
21
-115.298
0
LINE
8
Black
10
110.388
20
-115.298
11
110.558
21
-115.094
0
LINE
8
Black
10
110.558
20
-115.094
11
110.788
21
-114.961
0
LINE
8
Black
10
110.788
20
-114.961
11
111.05
21
-114.915
0
LINE
8
Black
10
111.05
20
-114.915
11
111.312
21
-114.961
0
LINE
8
Black
10
134.712
20
-114.961
11
134.942
21
-115.094
0
LINE
8
Black
10
134.942
20
-115.094
11
135.112
21
-115.298
0
LINE
8
Black
10
135.112
20
-115.298
11
135.203
21
-115.547
0
LINE
8
Black
10
135.203
20
-115.547
11
135.203
21
-115.813
0
LINE
8
Black
10
135.203
20
-115.813
11
135.112
21
-116.062
0
LINE
8
Black
10
135.112
20
-116.062
11
134.942
21
-116.266
0
LINE
8
Black
10
134.942
20
-116.266
11
134.712
21
-116.399
0
LINE
8
Black
10
134.712
20
-116.399
11
134.45
21
-116.445
0
LINE
8
Black
10
134.45
20
-116.445
11
134.188
21
-116.399
0
LINE
8
Black
10
134.188
20
-116.399
11
133.958
21
-116.266
0
LINE
8
Black
10
133.958
20
-116.266
11
133.788
21
-116.062
0
LINE
8
Black
10
133.788
20
-116.062
11
133.697
21
-115.813
0
LINE
8
Black
10
133.697
20
-115.813
11
133.697
21
-115.547
0
LINE
8
Black
10
133.697
20
-115.547
11
133.788
21
-115.298
0
LINE
8
Black
10
133.788
20
-115.298
11
133.958
21
-115.094
0
LINE
8
Black
10
133.958
20
-115.094
11
134.188
21
-114.961
0
LINE
8
Black
10
134.188
20
-114.961
11
134.45
21
-114.915
0
LINE
8
Black
10
134.45
20
-114.915
11
134.712
21
-114.961
0
LINE
8
Black
10
102.474
20
-114.581
11
102.73
21
-114.729
0
LINE
8
Black
10
102.73
20
-114.729
11
102.919
21
-114.955
0
LINE
8
Black
10
102.919
20
-114.955
11
103.02
21
-115.232
0
LINE
8
Black
10
103.02
20
-115.232
11
103.02
21
-115.528
0
LINE
8
Black
10
103.02
20
-115.528
11
102.919
21
-115.805
0
LINE
8
Black
10
102.919
20
-115.805
11
102.73
21
-116.031
0
LINE
8
Black
10
102.73
20
-116.031
11
102.474
21
-116.179
0
LINE
8
Black
10
102.474
20
-116.179
11
102.183
21
-116.23
0
LINE
8
Black
10
102.183
20
-116.23
11
102.177
21
-116.23
0
LINE
8
Black
10
102.177
20
-116.23
11
101.886
21
-116.179
0
LINE
8
Black
10
101.886
20
-116.179
11
101.63
21
-116.031
0
LINE
8
Black
10
101.63
20
-116.031
11
101.441
21
-115.805
0
LINE
8
Black
10
101.441
20
-115.805
11
101.34
21
-115.528
0
LINE
8
Black
10
101.34
20
-115.528
11
101.34
21
-115.232
0
LINE
8
Black
10
101.34
20
-115.232
11
101.441
21
-114.955
0
LINE
8
Black
10
101.441
20
-114.955
11
101.63
21
-114.729
0
LINE
8
Black
10
101.63
20
-114.729
11
101.886
21
-114.581
0
LINE
8
Black
10
101.886
20
-114.581
11
102.177
21
-114.53
0
LINE
8
Black
10
102.177
20
-114.53
11
102.183
21
-114.53
0
LINE
8
Black
10
102.183
20
-114.53
11
102.474
21
-114.581
0
LINE
8
Black
10
60.994
20
-112.361
11
61.2496
21
-112.509
0
LINE
8
Black
10
61.2496
20
-112.509
11
61.4394
21
-112.735
0
LINE
8
Black
10
61.4394
20
-112.735
11
61.5403
21
-113.012
0
LINE
8
Black
10
61.5403
20
-113.012
11
61.5403
21
-113.308
0
LINE
8
Black
10
61.5403
20
-113.308
11
61.4394
21
-113.585
0
LINE
8
Black
10
61.4394
20
-113.585
11
61.2496
21
-113.811
0
LINE
8
Black
10
61.2496
20
-113.811
11
60.994
21
-113.959
0
LINE
8
Black
10
60.994
20
-113.959
11
60.7032
21
-114.01
0
LINE
8
Black
10
60.7032
20
-114.01
11
60.6968
21
-114.01
0
LINE
8
Black
10
60.6968
20
-114.01
11
60.406
21
-113.959
0
LINE
8
Black
10
60.406
20
-113.959
11
60.1504
21
-113.811
0
LINE
8
Black
10
60.1504
20
-113.811
11
59.9606
21
-113.585
0
LINE
8
Black
10
59.9606
20
-113.585
11
59.8597
21
-113.308
0
LINE
8
Black
10
59.8597
20
-113.308
11
59.8597
21
-113.012
0
LINE
8
Black
10
59.8597
20
-113.012
11
59.9606
21
-112.735
0
LINE
8
Black
10
59.9606
20
-112.735
11
60.1504
21
-112.509
0
LINE
8
Black
10
60.1504
20
-112.509
11
60.406
21
-112.361
0
LINE
8
Black
10
60.406
20
-112.361
11
60.6968
21
-112.31
0
LINE
8
Black
10
60.6968
20
-112.31
11
60.7032
21
-112.31
0
LINE
8
Black
10
60.7032
20
-112.31
11
60.994
21
-112.361
0
LINE
8
Black
10
134.712
20
-112.421
11
134.942
21
-112.554
0
LINE
8
Black
10
134.942
20
-112.554
11
135.112
21
-112.758
0
LINE
8
Black
10
135.112
20
-112.758
11
135.203
21
-113.007
0
LINE
8
Black
10
135.203
20
-113.007
11
135.203
21
-113.273
0
LINE
8
Black
10
135.203
20
-113.273
11
135.112
21
-113.522
0
LINE
8
Black
10
135.112
20
-113.522
11
134.942
21
-113.726
0
LINE
8
Black
10
134.942
20
-113.726
11
134.712
21
-113.859
0
LINE
8
Black
10
134.712
20
-113.859
11
134.45
21
-113.905
0
LINE
8
Black
10
134.45
20
-113.905
11
134.188
21
-113.859
0
LINE
8
Black
10
134.188
20
-113.859
11
133.958
21
-113.726
0
LINE
8
Black
10
133.958
20
-113.726
11
133.788
21
-113.522
0
LINE
8
Black
10
133.788
20
-113.522
11
133.697
21
-113.273
0
LINE
8
Black
10
133.697
20
-113.273
11
133.697
21
-113.007
0
LINE
8
Black
10
133.697
20
-113.007
11
133.788
21
-112.758
0
LINE
8
Black
10
133.788
20
-112.758
11
133.958
21
-112.554
0
LINE
8
Black
10
133.958
20
-112.554
11
134.188
21
-112.421
0
LINE
8
Black
10
134.188
20
-112.421
11
134.45
21
-112.375
0
LINE
8
Black
10
134.45
20
-112.375
11
134.712
21
-112.421
0
LINE
8
Black
10
111.312
20
-112.421
11
111.542
21
-112.554
0
LINE
8
Black
10
111.542
20
-112.554
11
111.712
21
-112.758
0
LINE
8
Black
10
111.712
20
-112.758
11
111.803
21
-113.007
0
LINE
8
Black
10
111.803
20
-113.007
11
111.803
21
-113.273
0
LINE
8
Black
10
111.803
20
-113.273
11
111.712
21
-113.522
0
LINE
8
Black
10
111.712
20
-113.522
11
111.542
21
-113.726
0
LINE
8
Black
10
111.542
20
-113.726
11
111.312
21
-113.859
0
LINE
8
Black
10
111.312
20
-113.859
11
111.05
21
-113.905
0
LINE
8
Black
10
111.05
20
-113.905
11
110.788
21
-113.859
0
LINE
8
Black
10
110.788
20
-113.859
11
110.558
21
-113.726
0
LINE
8
Black
10
110.558
20
-113.726
11
110.388
21
-113.522
0
LINE
8
Black
10
110.388
20
-113.522
11
110.297
21
-113.273
0
LINE
8
Black
10
110.297
20
-113.273
11
110.297
21
-113.007
0
LINE
8
Black
10
110.297
20
-113.007
11
110.388
21
-112.758
0
LINE
8
Black
10
110.388
20
-112.758
11
110.558
21
-112.554
0
LINE
8
Black
10
110.558
20
-112.554
11
110.788
21
-112.421
0
LINE
8
Black
10
110.788
20
-112.421
11
111.05
21
-112.375
0
LINE
8
Black
10
111.05
20
-112.375
11
111.312
21
-112.421
0
LINE
8
Black
10
102.474
20
-112.041
11
102.73
21
-112.189
0
LINE
8
Black
10
102.73
20
-112.189
11
102.919
21
-112.415
0
LINE
8
Black
10
102.919
20
-112.415
11
103.02
21
-112.692
0
LINE
8
Black
10
103.02
20
-112.692
11
103.02
21
-112.988
0
LINE
8
Black
10
103.02
20
-112.988
11
102.919
21
-113.265
0
LINE
8
Black
10
102.919
20
-113.265
11
102.73
21
-113.491
0
LINE
8
Black
10
102.73
20
-113.491
11
102.474
21
-113.639
0
LINE
8
Black
10
102.474
20
-113.639
11
102.183
21
-113.69
0
LINE
8
Black
10
102.183
20
-113.69
11
102.177
21
-113.69
0
LINE
8
Black
10
102.177
20
-113.69
11
101.886
21
-113.639
0
LINE
8
Black
10
101.886
20
-113.639
11
101.63
21
-113.491
0
LINE
8
Black
10
101.63
20
-113.491
11
101.441
21
-113.265
0
LINE
8
Black
10
101.441
20
-113.265
11
101.34
21
-112.988
0
LINE
8
Black
10
101.34
20
-112.988
11
101.34
21
-112.692
0
LINE
8
Black
10
101.34
20
-112.692
11
101.441
21
-112.415
0
LINE
8
Black
10
101.441
20
-112.415
11
101.63
21
-112.189
0
LINE
8
Black
10
101.63
20
-112.189
11
101.886
21
-112.041
0
LINE
8
Black
10
101.886
20
-112.041
11
102.177
21
-111.99
0
LINE
8
Black
10
102.177
20
-111.99
11
102.183
21
-111.99
0
LINE
8
Black
10
102.183
20
-111.99
11
102.474
21
-112.041
0
LINE
8
Black
10
60.994
20
-109.821
11
61.2496
21
-109.969
0
LINE
8
Black
10
61.2496
20
-109.969
11
61.4394
21
-110.195
0
LINE
8
Black
10
61.4394
20
-110.195
11
61.5403
21
-110.472
0
LINE
8
Black
10
61.5403
20
-110.472
11
61.5403
21
-110.768
0
LINE
8
Black
10
61.5403
20
-110.768
11
61.4394
21
-111.045
0
LINE
8
Black
10
61.4394
20
-111.045
11
61.2496
21
-111.271
0
LINE
8
Black
10
61.2496
20
-111.271
11
60.994
21
-111.419
0
LINE
8
Black
10
60.994
20
-111.419
11
60.7032
21
-111.47
0
LINE
8
Black
10
60.7032
20
-111.47
11
60.6968
21
-111.47
0
LINE
8
Black
10
60.6968
20
-111.47
11
60.406
21
-111.419
0
LINE
8
Black
10
60.406
20
-111.419
11
60.1504
21
-111.271
0
LINE
8
Black
10
60.1504
20
-111.271
11
59.9606
21
-111.045
0
LINE
8
Black
10
59.9606
20
-111.045
11
59.8597
21
-110.768
0
LINE
8
Black
10
59.8597
20
-110.768
11
59.8597
21
-110.472
0
LINE
8
Black
10
59.8597
20
-110.472
11
59.9606
21
-110.195
0
LINE
8
Black
10
59.9606
20
-110.195
11
60.1504
21
-109.969
0
LINE
8
Black
10
60.1504
20
-109.969
11
60.406
21
-109.821
0
LINE
8
Black
10
60.406
20
-109.821
11
60.6968
21
-109.77
0
LINE
8
Black
10
60.6968
20
-109.77
11
60.7032
21
-109.77
0
LINE
8
Black
10
60.7032
20
-109.77
11
60.994
21
-109.821
0
LINE
8
Black
10
111.312
20
-109.881
11
111.542
21
-110.014
0
LINE
8
Black
10
111.542
20
-110.014
11
111.712
21
-110.218
0
LINE
8
Black
10
111.712
20
-110.218
11
111.803
21
-110.467
0
LINE
8
Black
10
111.803
20
-110.467
11
111.803
21
-110.733
0
LINE
8
Black
10
111.803
20
-110.733
11
111.712
21
-110.982
0
LINE
8
Black
10
111.712
20
-110.982
11
111.542
21
-111.186
0
LINE
8
Black
10
111.542
20
-111.186
11
111.312
21
-111.319
0
LINE
8
Black
10
111.312
20
-111.319
11
111.05
21
-111.365
0
LINE
8
Black
10
111.05
20
-111.365
11
110.788
21
-111.319
0
LINE
8
Black
10
110.788
20
-111.319
11
110.558
21
-111.186
0
LINE
8
Black
10
110.558
20
-111.186
11
110.388
21
-110.982
0
LINE
8
Black
10
110.388
20
-110.982
11
110.297
21
-110.733
0
LINE
8
Black
10
110.297
20
-110.733
11
110.297
21
-110.467
0
LINE
8
Black
10
110.297
20
-110.467
11
110.388
21
-110.218
0
LINE
8
Black
10
110.388
20
-110.218
11
110.558
21
-110.014
0
LINE
8
Black
10
110.558
20
-110.014
11
110.788
21
-109.881
0
LINE
8
Black
10
110.788
20
-109.881
11
111.05
21
-109.835
0
LINE
8
Black
10
111.05
20
-109.835
11
111.312
21
-109.881
0
LINE
8
Black
10
134.712
20
-109.881
11
134.942
21
-110.014
0
LINE
8
Black
10
134.942
20
-110.014
11
135.112
21
-110.218
0
LINE
8
Black
10
135.112
20
-110.218
11
135.203
21
-110.467
0
LINE
8
Black
10
135.203
20
-110.467
11
135.203
21
-110.733
0
LINE
8
Black
10
135.203
20
-110.733
11
135.112
21
-110.982
0
LINE
8
Black
10
135.112
20
-110.982
11
134.942
21
-111.186
0
LINE
8
Black
10
134.942
20
-111.186
11
134.712
21
-111.319
0
LINE
8
Black
10
134.712
20
-111.319
11
134.45
21
-111.365
0
LINE
8
Black
10
134.45
20
-111.365
11
134.188
21
-111.319
0
LINE
8
Black
10
134.188
20
-111.319
11
133.958
21
-111.186
0
LINE
8
Black
10
133.958
20
-111.186
11
133.788
21
-110.982
0
LINE
8
Black
10
133.788
20
-110.982
11
133.697
21
-110.733
0
LINE
8
Black
10
133.697
20
-110.733
11
133.697
21
-110.467
0
LINE
8
Black
10
133.697
20
-110.467
11
133.788
21
-110.218
0
LINE
8
Black
10
133.788
20
-110.218
11
133.958
21
-110.014
0
LINE
8
Black
10
133.958
20
-110.014
11
134.188
21
-109.881
0
LINE
8
Black
10
134.188
20
-109.881
11
134.45
21
-109.835
0
LINE
8
Black
10
134.45
20
-109.835
11
134.712
21
-109.881
0
LINE
8
Black
10
102.474
20
-109.501
11
102.73
21
-109.649
0
LINE
8
Black
10
102.73
20
-109.649
11
102.919
21
-109.875
0
LINE
8
Black
10
102.919
20
-109.875
11
103.02
21
-110.152
0
LINE
8
Black
10
103.02
20
-110.152
11
103.02
21
-110.448
0
LINE
8
Black
10
103.02
20
-110.448
11
102.919
21
-110.725
0
LINE
8
Black
10
102.919
20
-110.725
11
102.73
21
-110.951
0
LINE
8
Black
10
102.73
20
-110.951
11
102.474
21
-111.099
0
LINE
8
Black
10
102.474
20
-111.099
11
102.183
21
-111.15
0
LINE
8
Black
10
102.183
20
-111.15
11
102.177
21
-111.15
0
LINE
8
Black
10
102.177
20
-111.15
11
101.886
21
-111.099
0
LINE
8
Black
10
101.886
20
-111.099
11
101.63
21
-110.951
0
LINE
8
Black
10
101.63
20
-110.951
11
101.441
21
-110.725
0
LINE
8
Black
10
101.441
20
-110.725
11
101.34
21
-110.448
0
LINE
8
Black
10
101.34
20
-110.448
11
101.34
21
-110.152
0
LINE
8
Black
10
101.34
20
-110.152
11
101.441
21
-109.875
0
LINE
8
Black
10
101.441
20
-109.875
11
101.63
21
-109.649
0
LINE
8
Black
10
101.63
20
-109.649
11
101.886
21
-109.501
0
LINE
8
Black
10
101.886
20
-109.501
11
102.177
21
-109.45
0
LINE
8
Black
10
102.177
20
-109.45
11
102.183
21
-109.45
0
LINE
8
Black
10
102.183
20
-109.45
11
102.474
21
-109.501
0
LINE
8
Black
10
60.994
20
-107.281
11
61.2496
21
-107.429
0
LINE
8
Black
10
61.2496
20
-107.429
11
61.4394
21
-107.655
0
LINE
8
Black
10
61.4394
20
-107.655
11
61.5403
21
-107.932
0
LINE
8
Black
10
61.5403
20
-107.932
11
61.5403
21
-108.228
0
LINE
8
Black
10
61.5403
20
-108.228
11
61.4394
21
-108.505
0
LINE
8
Black
10
61.4394
20
-108.505
11
61.2496
21
-108.731
0
LINE
8
Black
10
61.2496
20
-108.731
11
60.994
21
-108.879
0
LINE
8
Black
10
60.994
20
-108.879
11
60.7032
21
-108.93
0
LINE
8
Black
10
60.7032
20
-108.93
11
60.6968
21
-108.93
0
LINE
8
Black
10
60.6968
20
-108.93
11
60.406
21
-108.879
0
LINE
8
Black
10
60.406
20
-108.879
11
60.1504
21
-108.731
0
LINE
8
Black
10
60.1504
20
-108.731
11
59.9606
21
-108.505
0
LINE
8
Black
10
59.9606
20
-108.505
11
59.8597
21
-108.228
0
LINE
8
Black
10
59.8597
20
-108.228
11
59.8597
21
-107.932
0
LINE
8
Black
10
59.8597
20
-107.932
11
59.9606
21
-107.655
0
LINE
8
Black
10
59.9606
20
-107.655
11
60.1504
21
-107.429
0
LINE
8
Black
10
60.1504
20
-107.429
11
60.406
21
-107.281
0
LINE
8
Black
10
60.406
20
-107.281
11
60.6968
21
-107.23
0
LINE
8
Black
10
60.6968
20
-107.23
11
60.7032
21
-107.23
0
LINE
8
Black
10
60.7032
20
-107.23
11
60.994
21
-107.281
0
LINE
8
Black
10
111.312
20
-107.341
11
111.542
21
-107.474
0
LINE
8
Black
10
111.542
20
-107.474
11
111.712
21
-107.678
0
LINE
8
Black
10
111.712
20
-107.678
11
111.803
21
-107.927
0
LINE
8
Black
10
111.803
20
-107.927
11
111.803
21
-108.193
0
LINE
8
Black
10
111.803
20
-108.193
11
111.712
21
-108.442
0
LINE
8
Black
10
111.712
20
-108.442
11
111.542
21
-108.646
0
LINE
8
Black
10
111.542
20
-108.646
11
111.312
21
-108.779
0
LINE
8
Black
10
111.312
20
-108.779
11
111.05
21
-108.825
0
LINE
8
Black
10
111.05
20
-108.825
11
110.788
21
-108.779
0
LINE
8
Black
10
110.788
20
-108.779
11
110.558
21
-108.646
0
LINE
8
Black
10
110.558
20
-108.646
11
110.388
21
-108.442
0
LINE
8
Black
10
110.388
20
-108.442
11
110.297
21
-108.193
0
LINE
8
Black
10
110.297
20
-108.193
11
110.297
21
-107.927
0
LINE
8
Black
10
110.297
20
-107.927
11
110.388
21
-107.678
0
LINE
8
Black
10
110.388
20
-107.678
11
110.558
21
-107.474
0
LINE
8
Black
10
110.558
20
-107.474
11
110.788
21
-107.341
0
LINE
8
Black
10
110.788
20
-107.341
11
111.05
21
-107.295
0
LINE
8
Black
10
111.05
20
-107.295
11
111.312
21
-107.341
0
LINE
8
Black
10
134.712
20
-107.341
11
134.942
21
-107.474
0
LINE
8
Black
10
134.942
20
-107.474
11
135.112
21
-107.678
0
LINE
8
Black
10
135.112
20
-107.678
11
135.203
21
-107.927
0
LINE
8
Black
10
135.203
20
-107.927
11
135.203
21
-108.193
0
LINE
8
Black
10
135.203
20
-108.193
11
135.112
21
-108.442
0
LINE
8
Black
10
135.112
20
-108.442
11
134.942
21
-108.646
0
LINE
8
Black
10
134.942
20
-108.646
11
134.712
21
-108.779
0
LINE
8
Black
10
134.712
20
-108.779
11
134.45
21
-108.825
0
LINE
8
Black
10
134.45
20
-108.825
11
134.188
21
-108.779
0
LINE
8
Black
10
134.188
20
-108.779
11
133.958
21
-108.646
0
LINE
8
Black
10
133.958
20
-108.646
11
133.788
21
-108.442
0
LINE
8
Black
10
133.788
20
-108.442
11
133.697
21
-108.193
0
LINE
8
Black
10
133.697
20
-108.193
11
133.697
21
-107.927
0
LINE
8
Black
10
133.697
20
-107.927
11
133.788
21
-107.678
0
LINE
8
Black
10
133.788
20
-107.678
11
133.958
21
-107.474
0
LINE
8
Black
10
133.958
20
-107.474
11
134.188
21
-107.341
0
LINE
8
Black
10
134.188
20
-107.341
11
134.45
21
-107.295
0
LINE
8
Black
10
134.45
20
-107.295
11
134.712
21
-107.341
0
LINE
8
Black
10
102.474
20
-106.961
11
102.73
21
-107.109
0
LINE
8
Black
10
102.73
20
-107.109
11
102.919
21
-107.335
0
LINE
8
Black
10
102.919
20
-107.335
11
103.02
21
-107.612
0
LINE
8
Black
10
103.02
20
-107.612
11
103.02
21
-107.908
0
LINE
8
Black
10
103.02
20
-107.908
11
102.919
21
-108.185
0
LINE
8
Black
10
102.919
20
-108.185
11
102.73
21
-108.411
0
LINE
8
Black
10
102.73
20
-108.411
11
102.474
21
-108.559
0
LINE
8
Black
10
102.474
20
-108.559
11
102.183
21
-108.61
0
LINE
8
Black
10
102.183
20
-108.61
11
102.177
21
-108.61
0
LINE
8
Black
10
102.177
20
-108.61
11
101.886
21
-108.559
0
LINE
8
Black
10
101.886
20
-108.559
11
101.63
21
-108.411
0
LINE
8
Black
10
101.63
20
-108.411
11
101.441
21
-108.185
0
LINE
8
Black
10
101.441
20
-108.185
11
101.34
21
-107.908
0
LINE
8
Black
10
101.34
20
-107.908
11
101.34
21
-107.612
0
LINE
8
Black
10
101.34
20
-107.612
11
101.441
21
-107.335
0
LINE
8
Black
10
101.441
20
-107.335
11
101.63
21
-107.109
0
LINE
8
Black
10
101.63
20
-107.109
11
101.886
21
-106.961
0
LINE
8
Black
10
101.886
20
-106.961
11
102.177
21
-106.91
0
LINE
8
Black
10
102.177
20
-106.91
11
102.183
21
-106.91
0
LINE
8
Black
10
102.183
20
-106.91
11
102.474
21
-106.961
0
LINE
8
Black
10
60.994
20
-104.741
11
61.2496
21
-104.889
0
LINE
8
Black
10
61.2496
20
-104.889
11
61.4394
21
-105.115
0
LINE
8
Black
10
61.4394
20
-105.115
11
61.5403
21
-105.392
0
LINE
8
Black
10
61.5403
20
-105.392
11
61.5403
21
-105.688
0
LINE
8
Black
10
61.5403
20
-105.688
11
61.4394
21
-105.965
0
LINE
8
Black
10
61.4394
20
-105.965
11
61.2496
21
-106.191
0
LINE
8
Black
10
61.2496
20
-106.191
11
60.994
21
-106.339
0
LINE
8
Black
10
60.994
20
-106.339
11
60.7032
21
-106.39
0
LINE
8
Black
10
60.7032
20
-106.39
11
60.6968
21
-106.39
0
LINE
8
Black
10
60.6968
20
-106.39
11
60.406
21
-106.339
0
LINE
8
Black
10
60.406
20
-106.339
11
60.1504
21
-106.191
0
LINE
8
Black
10
60.1504
20
-106.191
11
59.9606
21
-105.965
0
LINE
8
Black
10
59.9606
20
-105.965
11
59.8597
21
-105.688
0
LINE
8
Black
10
59.8597
20
-105.688
11
59.8597
21
-105.392
0
LINE
8
Black
10
59.8597
20
-105.392
11
59.9606
21
-105.115
0
LINE
8
Black
10
59.9606
20
-105.115
11
60.1504
21
-104.889
0
LINE
8
Black
10
60.1504
20
-104.889
11
60.406
21
-104.741
0
LINE
8
Black
10
60.406
20
-104.741
11
60.6968
21
-104.69
0
LINE
8
Black
10
60.6968
20
-104.69
11
60.7032
21
-104.69
0
LINE
8
Black
10
60.7032
20
-104.69
11
60.994
21
-104.741
0
LINE
8
Black
10
134.712
20
-104.801
11
134.942
21
-104.934
0
LINE
8
Black
10
134.942
20
-104.934
11
135.112
21
-105.138
0
LINE
8
Black
10
135.112
20
-105.138
11
135.203
21
-105.387
0
LINE
8
Black
10
135.203
20
-105.387
11
135.203
21
-105.653
0
LINE
8
Black
10
135.203
20
-105.653
11
135.112
21
-105.902
0
LINE
8
Black
10
135.112
20
-105.902
11
134.942
21
-106.106
0
LINE
8
Black
10
134.942
20
-106.106
11
134.712
21
-106.239
0
LINE
8
Black
10
134.712
20
-106.239
11
134.45
21
-106.285
0
LINE
8
Black
10
134.45
20
-106.285
11
134.188
21
-106.239
0
LINE
8
Black
10
134.188
20
-106.239
11
133.958
21
-106.106
0
LINE
8
Black
10
133.958
20
-106.106
11
133.788
21
-105.902
0
LINE
8
Black
10
133.788
20
-105.902
11
133.697
21
-105.653
0
LINE
8
Black
10
133.697
20
-105.653
11
133.697
21
-105.387
0
LINE
8
Black
10
133.697
20
-105.387
11
133.788
21
-105.138
0
LINE
8
Black
10
133.788
20
-105.138
11
133.958
21
-104.934
0
LINE
8
Black
10
133.958
20
-104.934
11
134.188
21
-104.801
0
LINE
8
Black
10
134.188
20
-104.801
11
134.45
21
-104.755
0
LINE
8
Black
10
134.45
20
-104.755
11
134.712
21
-104.801
0
LINE
8
Black
10
111.312
20
-104.801
11
111.542
21
-104.934
0
LINE
8
Black
10
111.542
20
-104.934
11
111.712
21
-105.138
0
LINE
8
Black
10
111.712
20
-105.138
11
111.803
21
-105.387
0
LINE
8
Black
10
111.803
20
-105.387
11
111.803
21
-105.653
0
LINE
8
Black
10
111.803
20
-105.653
11
111.712
21
-105.902
0
LINE
8
Black
10
111.712
20
-105.902
11
111.542
21
-106.106
0
LINE
8
Black
10
111.542
20
-106.106
11
111.312
21
-106.239
0
LINE
8
Black
10
111.312
20
-106.239
11
111.05
21
-106.285
0
LINE
8
Black
10
111.05
20
-106.285
11
110.788
21
-106.239
0
LINE
8
Black
10
110.788
20
-106.239
11
110.558
21
-106.106
0
LINE
8
Black
10
110.558
20
-106.106
11
110.388
21
-105.902
0
LINE
8
Black
10
110.388
20
-105.902
11
110.297
21
-105.653
0
LINE
8
Black
10
110.297
20
-105.653
11
110.297
21
-105.387
0
LINE
8
Black
10
110.297
20
-105.387
11
110.388
21
-105.138
0
LINE
8
Black
10
110.388
20
-105.138
11
110.558
21
-104.934
0
LINE
8
Black
10
110.558
20
-104.934
11
110.788
21
-104.801
0
LINE
8
Black
10
110.788
20
-104.801
11
111.05
21
-104.755
0
LINE
8
Black
10
111.05
20
-104.755
11
111.312
21
-104.801
0
LINE
8
Black
10
102.474
20
-104.421
11
102.73
21
-104.569
0
LINE
8
Black
10
102.73
20
-104.569
11
102.919
21
-104.795
0
LINE
8
Black
10
102.919
20
-104.795
11
103.02
21
-105.072
0
LINE
8
Black
10
103.02
20
-105.072
11
103.02
21
-105.368
0
LINE
8
Black
10
103.02
20
-105.368
11
102.919
21
-105.645
0
LINE
8
Black
10
102.919
20
-105.645
11
102.73
21
-105.871
0
LINE
8
Black
10
102.73
20
-105.871
11
102.474
21
-106.019
0
LINE
8
Black
10
102.474
20
-106.019
11
102.183
21
-106.07
0
LINE
8
Black
10
102.183
20
-106.07
11
102.177
21
-106.07
0
LINE
8
Black
10
102.177
20
-106.07
11
101.886
21
-106.019
0
LINE
8
Black
10
101.886
20
-106.019
11
101.63
21
-105.871
0
LINE
8
Black
10
101.63
20
-105.871
11
101.441
21
-105.645
0
LINE
8
Black
10
101.441
20
-105.645
11
101.34
21
-105.368
0
LINE
8
Black
10
101.34
20
-105.368
11
101.34
21
-105.072
0
LINE
8
Black
10
101.34
20
-105.072
11
101.441
21
-104.795
0
LINE
8
Black
10
101.441
20
-104.795
11
101.63
21
-104.569
0
LINE
8
Black
10
101.63
20
-104.569
11
101.886
21
-104.421
0
LINE
8
Black
10
101.886
20
-104.421
11
102.177
21
-104.37
0
LINE
8
Black
10
102.177
20
-104.37
11
102.183
21
-104.37
0
LINE
8
Black
10
102.183
20
-104.37
11
102.474
21
-104.421
0
LINE
8
Black
10
60.994
20
-102.201
11
61.2496
21
-102.349
0
LINE
8
Black
10
61.2496
20
-102.349
11
61.4394
21
-102.575
0
LINE
8
Black
10
61.4394
20
-102.575
11
61.5403
21
-102.852
0
LINE
8
Black
10
61.5403
20
-102.852
11
61.5403
21
-103.148
0
LINE
8
Black
10
61.5403
20
-103.148
11
61.4394
21
-103.425
0
LINE
8
Black
10
61.4394
20
-103.425
11
61.2496
21
-103.651
0
LINE
8
Black
10
61.2496
20
-103.651
11
60.994
21
-103.799
0
LINE
8
Black
10
60.994
20
-103.799
11
60.7032
21
-103.85
0
LINE
8
Black
10
60.7032
20
-103.85
11
60.6968
21
-103.85
0
LINE
8
Black
10
60.6968
20
-103.85
11
60.406
21
-103.799
0
LINE
8
Black
10
60.406
20
-103.799
11
60.1504
21
-103.651
0
LINE
8
Black
10
60.1504
20
-103.651
11
59.9606
21
-103.425
0
LINE
8
Black
10
59.9606
20
-103.425
11
59.8597
21
-103.148
0
LINE
8
Black
10
59.8597
20
-103.148
11
59.8597
21
-102.852
0
LINE
8
Black
10
59.8597
20
-102.852
11
59.9606
21
-102.575
0
LINE
8
Black
10
59.9606
20
-102.575
11
60.1504
21
-102.349
0
LINE
8
Black
10
60.1504
20
-102.349
11
60.406
21
-102.201
0
LINE
8
Black
10
60.406
20
-102.201
11
60.6968
21
-102.15
0
LINE
8
Black
10
60.6968
20
-102.15
11
60.7032
21
-102.15
0
LINE
8
Black
10
60.7032
20
-102.15
11
60.994
21
-102.201
0
LINE
8
Black
10
111.312
20
-102.261
11
111.542
21
-102.394
0
LINE
8
Black
10
111.542
20
-102.394
11
111.712
21
-102.598
0
LINE
8
Black
10
111.712
20
-102.598
11
111.803
21
-102.847
0
LINE
8
Black
10
111.803
20
-102.847
11
111.803
21
-103.113
0
LINE
8
Black
10
111.803
20
-103.113
11
111.712
21
-103.362
0
LINE
8
Black
10
111.712
20
-103.362
11
111.542
21
-103.566
0
LINE
8
Black
10
111.542
20
-103.566
11
111.312
21
-103.699
0
LINE
8
Black
10
111.312
20
-103.699
11
111.05
21
-103.745
0
LINE
8
Black
10
111.05
20
-103.745
11
110.788
21
-103.699
0
LINE
8
Black
10
110.788
20
-103.699
11
110.558
21
-103.566
0
LINE
8
Black
10
110.558
20
-103.566
11
110.388
21
-103.362
0
LINE
8
Black
10
110.388
20
-103.362
11
110.297
21
-103.113
0
LINE
8
Black
10
110.297
20
-103.113
11
110.297
21
-102.847
0
LINE
8
Black
10
110.297
20
-102.847
11
110.388
21
-102.598
0
LINE
8
Black
10
110.388
20
-102.598
11
110.558
21
-102.394
0
LINE
8
Black
10
110.558
20
-102.394
11
110.788
21
-102.261
0
LINE
8
Black
10
110.788
20
-102.261
11
111.05
21
-102.215
0
LINE
8
Black
10
111.05
20
-102.215
11
111.312
21
-102.261
0
LINE
8
Black
10
134.712
20
-102.261
11
134.942
21
-102.394
0
LINE
8
Black
10
134.942
20
-102.394
11
135.112
21
-102.598
0
LINE
8
Black
10
135.112
20
-102.598
11
135.203
21
-102.847
0
LINE
8
Black
10
135.203
20
-102.847
11
135.203
21
-103.113
0
LINE
8
Black
10
135.203
20
-103.113
11
135.112
21
-103.362
0
LINE
8
Black
10
135.112
20
-103.362
11
134.942
21
-103.566
0
LINE
8
Black
10
134.942
20
-103.566
11
134.712
21
-103.699
0
LINE
8
Black
10
134.712
20
-103.699
11
134.45
21
-103.745
0
LINE
8
Black
10
134.45
20
-103.745
11
134.188
21
-103.699
0
LINE
8
Black
10
134.188
20
-103.699
11
133.958
21
-103.566
0
LINE
8
Black
10
133.958
20
-103.566
11
133.788
21
-103.362
0
LINE
8
Black
10
133.788
20
-103.362
11
133.697
21
-103.113
0
LINE
8
Black
10
133.697
20
-103.113
11
133.697
21
-102.847
0
LINE
8
Black
10
133.697
20
-102.847
11
133.788
21
-102.598
0
LINE
8
Black
10
133.788
20
-102.598
11
133.958
21
-102.394
0
LINE
8
Black
10
133.958
20
-102.394
11
134.188
21
-102.261
0
LINE
8
Black
10
134.188
20
-102.261
11
134.45
21
-102.215
0
LINE
8
Black
10
134.45
20
-102.215
11
134.712
21
-102.261
0
LINE
8
Black
10
102.474
20
-101.881
11
102.73
21
-102.029
0
LINE
8
Black
10
102.73
20
-102.029
11
102.919
21
-102.255
0
LINE
8
Black
10
102.919
20
-102.255
11
103.02
21
-102.532
0
LINE
8
Black
10
103.02
20
-102.532
11
103.02
21
-102.828
0
LINE
8
Black
10
103.02
20
-102.828
11
102.919
21
-103.105
0
LINE
8
Black
10
102.919
20
-103.105
11
102.73
21
-103.331
0
LINE
8
Black
10
102.73
20
-103.331
11
102.474
21
-103.479
0
LINE
8
Black
10
102.474
20
-103.479
11
102.183
21
-103.53
0
LINE
8
Black
10
102.183
20
-103.53
11
102.177
21
-103.53
0
LINE
8
Black
10
102.177
20
-103.53
11
101.886
21
-103.479
0
LINE
8
Black
10
101.886
20
-103.479
11
101.63
21
-103.331
0
LINE
8
Black
10
101.63
20
-103.331
11
101.441
21
-103.105
0
LINE
8
Black
10
101.441
20
-103.105
11
101.34
21
-102.828
0
LINE
8
Black
10
101.34
20
-102.828
11
101.34
21
-102.532
0
LINE
8
Black
10
101.34
20
-102.532
11
101.441
21
-102.255
0
LINE
8
Black
10
101.441
20
-102.255
11
101.63
21
-102.029
0
LINE
8
Black
10
101.63
20
-102.029
11
101.886
21
-101.881
0
LINE
8
Black
10
101.886
20
-101.881
11
102.177
21
-101.83
0
LINE
8
Black
10
102.177
20
-101.83
11
102.183
21
-101.83
0
LINE
8
Black
10
102.183
20
-101.83
11
102.474
21
-101.881
0
LINE
8
Black
10
60.994
20
-99.6613
11
61.2496
21
-99.8089
0
LINE
8
Black
10
61.2496
20
-99.8089
11
61.4394
21
-100.035
0
LINE
8
Black
10
61.4394
20
-100.035
11
61.5403
21
-100.312
0
LINE
8
Black
10
61.5403
20
-100.312
11
61.5403
21
-100.608
0
LINE
8
Black
10
61.5403
20
-100.608
11
61.4394
21
-100.885
0
LINE
8
Black
10
61.4394
20
-100.885
11
61.2496
21
-101.111
0
LINE
8
Black
10
61.2496
20
-101.111
11
60.994
21
-101.259
0
LINE
8
Black
10
60.994
20
-101.259
11
60.7032
21
-101.31
0
LINE
8
Black
10
60.7032
20
-101.31
11
60.6968
21
-101.31
0
LINE
8
Black
10
60.6968
20
-101.31
11
60.406
21
-101.259
0
LINE
8
Black
10
60.406
20
-101.259
11
60.1504
21
-101.111
0
LINE
8
Black
10
60.1504
20
-101.111
11
59.9606
21
-100.885
0
LINE
8
Black
10
59.9606
20
-100.885
11
59.8597
21
-100.608
0
LINE
8
Black
10
59.8597
20
-100.608
11
59.8597
21
-100.312
0
LINE
8
Black
10
59.8597
20
-100.312
11
59.9606
21
-100.035
0
LINE
8
Black
10
59.9606
20
-100.035
11
60.1504
21
-99.8089
0
LINE
8
Black
10
60.1504
20
-99.8089
11
60.406
21
-99.6613
0
LINE
8
Black
10
60.406
20
-99.6613
11
60.6968
21
-99.61
0
LINE
8
Black
10
60.6968
20
-99.61
11
60.7032
21
-99.61
0
LINE
8
Black
10
60.7032
20
-99.61
11
60.994
21
-99.6613
0
LINE
8
Black
10
111.312
20
-99.7212
11
111.542
21
-99.854
0
LINE
8
Black
10
111.542
20
-99.854
11
111.712
21
-100.058
0
LINE
8
Black
10
111.712
20
-100.058
11
111.803
21
-100.307
0
LINE
8
Black
10
111.803
20
-100.307
11
111.803
21
-100.573
0
LINE
8
Black
10
111.803
20
-100.573
11
111.712
21
-100.822
0
LINE
8
Black
10
111.712
20
-100.822
11
111.542
21
-101.026
0
LINE
8
Black
10
111.542
20
-101.026
11
111.312
21
-101.159
0
LINE
8
Black
10
111.312
20
-101.159
11
111.05
21
-101.205
0
LINE
8
Black
10
111.05
20
-101.205
11
110.788
21
-101.159
0
LINE
8
Black
10
110.788
20
-101.159
11
110.558
21
-101.026
0
LINE
8
Black
10
110.558
20
-101.026
11
110.388
21
-100.822
0
LINE
8
Black
10
110.388
20
-100.822
11
110.297
21
-100.573
0
LINE
8
Black
10
110.297
20
-100.573
11
110.297
21
-100.307
0
LINE
8
Black
10
110.297
20
-100.307
11
110.388
21
-100.058
0
LINE
8
Black
10
110.388
20
-100.058
11
110.558
21
-99.854
0
LINE
8
Black
10
110.558
20
-99.854
11
110.788
21
-99.7212
0
LINE
8
Black
10
110.788
20
-99.7212
11
111.05
21
-99.6751
0
LINE
8
Black
10
111.05
20
-99.6751
11
111.312
21
-99.7212
0
LINE
8
Black
10
134.712
20
-99.7212
11
134.942
21
-99.854
0
LINE
8
Black
10
134.942
20
-99.854
11
135.112
21
-100.058
0
LINE
8
Black
10
135.112
20
-100.058
11
135.203
21
-100.307
0
LINE
8
Black
10
135.203
20
-100.307
11
135.203
21
-100.573
0
LINE
8
Black
10
135.203
20
-100.573
11
135.112
21
-100.822
0
LINE
8
Black
10
135.112
20
-100.822
11
134.942
21
-101.026
0
LINE
8
Black
10
134.942
20
-101.026
11
134.712
21
-101.159
0
LINE
8
Black
10
134.712
20
-101.159
11
134.45
21
-101.205
0
LINE
8
Black
10
134.45
20
-101.205
11
134.188
21
-101.159
0
LINE
8
Black
10
134.188
20
-101.159
11
133.958
21
-101.026
0
LINE
8
Black
10
133.958
20
-101.026
11
133.788
21
-100.822
0
LINE
8
Black
10
133.788
20
-100.822
11
133.697
21
-100.573
0
LINE
8
Black
10
133.697
20
-100.573
11
133.697
21
-100.307
0
LINE
8
Black
10
133.697
20
-100.307
11
133.788
21
-100.058
0
LINE
8
Black
10
133.788
20
-100.058
11
133.958
21
-99.854
0
LINE
8
Black
10
133.958
20
-99.854
11
134.188
21
-99.7212
0
LINE
8
Black
10
134.188
20
-99.7212
11
134.45
21
-99.6751
0
LINE
8
Black
10
134.45
20
-99.6751
11
134.712
21
-99.7212
0
LINE
8
Black
10
102.474
20
-99.3413
11
102.73
21
-99.4889
0
LINE
8
Black
10
102.73
20
-99.4889
11
102.919
21
-99.715
0
LINE
8
Black
10
102.919
20
-99.715
11
103.02
21
-99.9924
0
LINE
8
Black
10
103.02
20
-99.9924
11
103.02
21
-100.288
0
LINE
8
Black
10
103.02
20
-100.288
11
102.919
21
-100.565
0
LINE
8
Black
10
102.919
20
-100.565
11
102.73
21
-100.791
0
LINE
8
Black
10
102.73
20
-100.791
11
102.474
21
-100.939
0
LINE
8
Black
10
102.474
20
-100.939
11
102.183
21
-100.99
0
LINE
8
Black
10
102.183
20
-100.99
11
102.177
21
-100.99
0
LINE
8
Black
10
102.177
20
-100.99
11
101.886
21
-100.939
0
LINE
8
Black
10
101.886
20
-100.939
11
101.63
21
-100.791
0
LINE
8
Black
10
101.63
20
-100.791
11
101.441
21
-100.565
0
LINE
8
Black
10
101.441
20
-100.565
11
101.34
21
-100.288
0
LINE
8
Black
10
101.34
20
-100.288
11
101.34
21
-99.9924
0
LINE
8
Black
10
101.34
20
-99.9924
11
101.441
21
-99.715
0
LINE
8
Black
10
101.441
20
-99.715
11
101.63
21
-99.4889
0
LINE
8
Black
10
101.63
20
-99.4889
11
101.886
21
-99.3413
0
LINE
8
Black
10
101.886
20
-99.3413
11
102.177
21
-99.29
0
LINE
8
Black
10
102.177
20
-99.29
11
102.183
21
-99.29
0
LINE
8
Black
10
102.183
20
-99.29
11
102.474
21
-99.3413
0
LINE
8
Black
10
60.994
20
-97.1213
11
61.2496
21
-97.2689
0
LINE
8
Black
10
61.2496
20
-97.2689
11
61.4394
21
-97.495
0
LINE
8
Black
10
61.4394
20
-97.495
11
61.5403
21
-97.7724
0
LINE
8
Black
10
61.5403
20
-97.7724
11
61.5403
21
-98.0676
0
LINE
8
Black
10
61.5403
20
-98.0676
11
61.4394
21
-98.345
0
LINE
8
Black
10
61.4394
20
-98.345
11
61.2496
21
-98.5711
0
LINE
8
Black
10
61.2496
20
-98.5711
11
60.994
21
-98.7187
0
LINE
8
Black
10
60.994
20
-98.7187
11
60.7032
21
-98.77
0
LINE
8
Black
10
60.7032
20
-98.77
11
60.6968
21
-98.77
0
LINE
8
Black
10
60.6968
20
-98.77
11
60.406
21
-98.7187
0
LINE
8
Black
10
60.406
20
-98.7187
11
60.1504
21
-98.5711
0
LINE
8
Black
10
60.1504
20
-98.5711
11
59.9606
21
-98.345
0
LINE
8
Black
10
59.9606
20
-98.345
11
59.8597
21
-98.0676
0
LINE
8
Black
10
59.8597
20
-98.0676
11
59.8597
21
-97.7724
0
LINE
8
Black
10
59.8597
20
-97.7724
11
59.9606
21
-97.495
0
LINE
8
Black
10
59.9606
20
-97.495
11
60.1504
21
-97.2689
0
LINE
8
Black
10
60.1504
20
-97.2689
11
60.406
21
-97.1213
0
LINE
8
Black
10
60.406
20
-97.1213
11
60.6968
21
-97.07
0
LINE
8
Black
10
60.6968
20
-97.07
11
60.7032
21
-97.07
0
LINE
8
Black
10
60.7032
20
-97.07
11
60.994
21
-97.1213
0
LINE
8
Black
10
134.712
20
-97.1812
11
134.942
21
-97.314
0
LINE
8
Black
10
134.942
20
-97.314
11
135.112
21
-97.5175
0
LINE
8
Black
10
135.112
20
-97.5175
11
135.203
21
-97.7672
0
LINE
8
Black
10
135.203
20
-97.7672
11
135.203
21
-98.0328
0
LINE
8
Black
10
135.203
20
-98.0328
11
135.112
21
-98.2825
0
LINE
8
Black
10
135.112
20
-98.2825
11
134.942
21
-98.486
0
LINE
8
Black
10
134.942
20
-98.486
11
134.712
21
-98.6188
0
LINE
8
Black
10
134.712
20
-98.6188
11
134.45
21
-98.6649
0
LINE
8
Black
10
134.45
20
-98.6649
11
134.188
21
-98.6188
0
LINE
8
Black
10
134.188
20
-98.6188
11
133.958
21
-98.486
0
LINE
8
Black
10
133.958
20
-98.486
11
133.788
21
-98.2825
0
LINE
8
Black
10
133.788
20
-98.2825
11
133.697
21
-98.0328
0
LINE
8
Black
10
133.697
20
-98.0328
11
133.697
21
-97.7672
0
LINE
8
Black
10
133.697
20
-97.7672
11
133.788
21
-97.5175
0
LINE
8
Black
10
133.788
20
-97.5175
11
133.958
21
-97.314
0
LINE
8
Black
10
133.958
20
-97.314
11
134.188
21
-97.1812
0
LINE
8
Black
10
134.188
20
-97.1812
11
134.45
21
-97.1351
0
LINE
8
Black
10
134.45
20
-97.1351
11
134.712
21
-97.1812
0
LINE
8
Black
10
111.312
20
-97.1812
11
111.542
21
-97.314
0
LINE
8
Black
10
111.542
20
-97.314
11
111.712
21
-97.5175
0
LINE
8
Black
10
111.712
20
-97.5175
11
111.803
21
-97.7672
0
LINE
8
Black
10
111.803
20
-97.7672
11
111.803
21
-98.0328
0
LINE
8
Black
10
111.803
20
-98.0328
11
111.712
21
-98.2825
0
LINE
8
Black
10
111.712
20
-98.2825
11
111.542
21
-98.486
0
LINE
8
Black
10
111.542
20
-98.486
11
111.312
21
-98.6188
0
LINE
8
Black
10
111.312
20
-98.6188
11
111.05
21
-98.6649
0
LINE
8
Black
10
111.05
20
-98.6649
11
110.788
21
-98.6188
0
LINE
8
Black
10
110.788
20
-98.6188
11
110.558
21
-98.486
0
LINE
8
Black
10
110.558
20
-98.486
11
110.388
21
-98.2825
0
LINE
8
Black
10
110.388
20
-98.2825
11
110.297
21
-98.0328
0
LINE
8
Black
10
110.297
20
-98.0328
11
110.297
21
-97.7672
0
LINE
8
Black
10
110.297
20
-97.7672
11
110.388
21
-97.5175
0
LINE
8
Black
10
110.388
20
-97.5175
11
110.558
21
-97.314
0
LINE
8
Black
10
110.558
20
-97.314
11
110.788
21
-97.1812
0
LINE
8
Black
10
110.788
20
-97.1812
11
111.05
21
-97.1351
0
LINE
8
Black
10
111.05
20
-97.1351
11
111.312
21
-97.1812
0
LINE
8
Black
10
102.474
20
-96.8013
11
102.73
21
-96.9489
0
LINE
8
Black
10
102.73
20
-96.9489
11
102.919
21
-97.175
0
LINE
8
Black
10
102.919
20
-97.175
11
103.02
21
-97.4524
0
LINE
8
Black
10
103.02
20
-97.4524
11
103.02
21
-97.7476
0
LINE
8
Black
10
103.02
20
-97.7476
11
102.919
21
-98.025
0
LINE
8
Black
10
102.919
20
-98.025
11
102.73
21
-98.2511
0
LINE
8
Black
10
102.73
20
-98.2511
11
102.474
21
-98.3987
0
LINE
8
Black
10
102.474
20
-98.3987
11
102.183
21
-98.45
0
LINE
8
Black
10
102.183
20
-98.45
11
102.177
21
-98.45
0
LINE
8
Black
10
102.177
20
-98.45
11
101.886
21
-98.3987
0
LINE
8
Black
10
101.886
20
-98.3987
11
101.63
21
-98.2511
0
LINE
8
Black
10
101.63
20
-98.2511
11
101.441
21
-98.025
0
LINE
8
Black
10
101.441
20
-98.025
11
101.34
21
-97.7476
0
LINE
8
Black
10
101.34
20
-97.7476
11
101.34
21
-97.4524
0
LINE
8
Black
10
101.34
20
-97.4524
11
101.441
21
-97.175
0
LINE
8
Black
10
101.441
20
-97.175
11
101.63
21
-96.9489
0
LINE
8
Black
10
101.63
20
-96.9489
11
101.886
21
-96.8013
0
LINE
8
Black
10
101.886
20
-96.8013
11
102.177
21
-96.75
0
LINE
8
Black
10
102.177
20
-96.75
11
102.183
21
-96.75
0
LINE
8
Black
10
102.183
20
-96.75
11
102.474
21
-96.8013
0
LINE
8
Black
10
60.994
20
-94.5813
11
61.2496
21
-94.7289
0
LINE
8
Black
10
61.2496
20
-94.7289
11
61.4394
21
-94.955
0
LINE
8
Black
10
61.4394
20
-94.955
11
61.5403
21
-95.2324
0
LINE
8
Black
10
61.5403
20
-95.2324
11
61.5403
21
-95.5276
0
LINE
8
Black
10
61.5403
20
-95.5276
11
61.4394
21
-95.805
0
LINE
8
Black
10
61.4394
20
-95.805
11
61.2496
21
-96.0311
0
LINE
8
Black
10
61.2496
20
-96.0311
11
60.994
21
-96.1787
0
LINE
8
Black
10
60.994
20
-96.1787
11
60.7032
21
-96.23
0
LINE
8
Black
10
60.7032
20
-96.23
11
60.6968
21
-96.23
0
LINE
8
Black
10
60.6968
20
-96.23
11
60.406
21
-96.1787
0
LINE
8
Black
10
60.406
20
-96.1787
11
60.1504
21
-96.0311
0
LINE
8
Black
10
60.1504
20
-96.0311
11
59.9606
21
-95.805
0
LINE
8
Black
10
59.9606
20
-95.805
11
59.8597
21
-95.5276
0
LINE
8
Black
10
59.8597
20
-95.5276
11
59.8597
21
-95.2324
0
LINE
8
Black
10
59.8597
20
-95.2324
11
59.9606
21
-94.955
0
LINE
8
Black
10
59.9606
20
-94.955
11
60.1504
21
-94.7289
0
LINE
8
Black
10
60.1504
20
-94.7289
11
60.406
21
-94.5813
0
LINE
8
Black
10
60.406
20
-94.5813
11
60.6968
21
-94.53
0
LINE
8
Black
10
60.6968
20
-94.53
11
60.7032
21
-94.53
0
LINE
8
Black
10
60.7032
20
-94.53
11
60.994
21
-94.5813
0
LINE
8
Black
10
134.712
20
-94.6412
11
134.942
21
-94.774
0
LINE
8
Black
10
134.942
20
-94.774
11
135.112
21
-94.9775
0
LINE
8
Black
10
135.112
20
-94.9775
11
135.203
21
-95.2272
0
LINE
8
Black
10
135.203
20
-95.2272
11
135.203
21
-95.4928
0
LINE
8
Black
10
135.203
20
-95.4928
11
135.112
21
-95.7425
0
LINE
8
Black
10
135.112
20
-95.7425
11
134.942
21
-95.946
0
LINE
8
Black
10
134.942
20
-95.946
11
134.712
21
-96.0788
0
LINE
8
Black
10
134.712
20
-96.0788
11
134.45
21
-96.1249
0
LINE
8
Black
10
134.45
20
-96.1249
11
134.188
21
-96.0788
0
LINE
8
Black
10
134.188
20
-96.0788
11
133.958
21
-95.946
0
LINE
8
Black
10
133.958
20
-95.946
11
133.788
21
-95.7425
0
LINE
8
Black
10
133.788
20
-95.7425
11
133.697
21
-95.4928
0
LINE
8
Black
10
133.697
20
-95.4928
11
133.697
21
-95.2272
0
LINE
8
Black
10
133.697
20
-95.2272
11
133.788
21
-94.9775
0
LINE
8
Black
10
133.788
20
-94.9775
11
133.958
21
-94.774
0
LINE
8
Black
10
133.958
20
-94.774
11
134.188
21
-94.6412
0
LINE
8
Black
10
134.188
20
-94.6412
11
134.45
21
-94.5951
0
LINE
8
Black
10
134.45
20
-94.5951
11
134.712
21
-94.6412
0
LINE
8
Black
10
111.312
20
-94.6412
11
111.542
21
-94.774
0
LINE
8
Black
10
111.542
20
-94.774
11
111.712
21
-94.9775
0
LINE
8
Black
10
111.712
20
-94.9775
11
111.803
21
-95.2272
0
LINE
8
Black
10
111.803
20
-95.2272
11
111.803
21
-95.4928
0
LINE
8
Black
10
111.803
20
-95.4928
11
111.712
21
-95.7425
0
LINE
8
Black
10
111.712
20
-95.7425
11
111.542
21
-95.946
0
LINE
8
Black
10
111.542
20
-95.946
11
111.312
21
-96.0788
0
LINE
8
Black
10
111.312
20
-96.0788
11
111.05
21
-96.1249
0
LINE
8
Black
10
111.05
20
-96.1249
11
110.788
21
-96.0788
0
LINE
8
Black
10
110.788
20
-96.0788
11
110.558
21
-95.946
0
LINE
8
Black
10
110.558
20
-95.946
11
110.388
21
-95.7425
0
LINE
8
Black
10
110.388
20
-95.7425
11
110.297
21
-95.4928
0
LINE
8
Black
10
110.297
20
-95.4928
11
110.297
21
-95.2272
0
LINE
8
Black
10
110.297
20
-95.2272
11
110.388
21
-94.9775
0
LINE
8
Black
10
110.388
20
-94.9775
11
110.558
21
-94.774
0
LINE
8
Black
10
110.558
20
-94.774
11
110.788
21
-94.6412
0
LINE
8
Black
10
110.788
20
-94.6412
11
111.05
21
-94.5951
0
LINE
8
Black
10
111.05
20
-94.5951
11
111.312
21
-94.6412
0
LINE
8
Black
10
102.474
20
-94.2613
11
102.73
21
-94.4089
0
LINE
8
Black
10
102.73
20
-94.4089
11
102.919
21
-94.635
0
LINE
8
Black
10
102.919
20
-94.635
11
103.02
21
-94.9124
0
LINE
8
Black
10
103.02
20
-94.9124
11
103.02
21
-95.2076
0
LINE
8
Black
10
103.02
20
-95.2076
11
102.919
21
-95.485
0
LINE
8
Black
10
102.919
20
-95.485
11
102.73
21
-95.7111
0
LINE
8
Black
10
102.73
20
-95.7111
11
102.474
21
-95.8587
0
LINE
8
Black
10
102.474
20
-95.8587
11
102.183
21
-95.91
0
LINE
8
Black
10
102.183
20
-95.91
11
102.177
21
-95.91
0
LINE
8
Black
10
102.177
20
-95.91
11
101.886
21
-95.8587
0
LINE
8
Black
10
101.886
20
-95.8587
11
101.63
21
-95.7111
0
LINE
8
Black
10
101.63
20
-95.7111
11
101.441
21
-95.485
0
LINE
8
Black
10
101.441
20
-95.485
11
101.34
21
-95.2076
0
LINE
8
Black
10
101.34
20
-95.2076
11
101.34
21
-94.9124
0
LINE
8
Black
10
101.34
20
-94.9124
11
101.441
21
-94.635
0
LINE
8
Black
10
101.441
20
-94.635
11
101.63
21
-94.4089
0
LINE
8
Black
10
101.63
20
-94.4089
11
101.886
21
-94.2613
0
LINE
8
Black
10
101.886
20
-94.2613
11
102.177
21
-94.21
0
LINE
8
Black
10
102.177
20
-94.21
11
102.183
21
-94.21
0
LINE
8
Black
10
102.183
20
-94.21
11
102.474
21
-94.2613
0
LINE
8
Black
10
60.994
20
-92.0413
11
61.2496
21
-92.1889
0
LINE
8
Black
10
61.2496
20
-92.1889
11
61.4394
21
-92.415
0
LINE
8
Black
10
61.4394
20
-92.415
11
61.5403
21
-92.6924
0
LINE
8
Black
10
61.5403
20
-92.6924
11
61.5403
21
-92.9876
0
LINE
8
Black
10
61.5403
20
-92.9876
11
61.4394
21
-93.265
0
LINE
8
Black
10
61.4394
20
-93.265
11
61.2496
21
-93.4911
0
LINE
8
Black
10
61.2496
20
-93.4911
11
60.994
21
-93.6387
0
LINE
8
Black
10
60.994
20
-93.6387
11
60.7032
21
-93.69
0
LINE
8
Black
10
60.7032
20
-93.69
11
60.6968
21
-93.69
0
LINE
8
Black
10
60.6968
20
-93.69
11
60.406
21
-93.6387
0
LINE
8
Black
10
60.406
20
-93.6387
11
60.1504
21
-93.4911
0
LINE
8
Black
10
60.1504
20
-93.4911
11
59.9606
21
-93.265
0
LINE
8
Black
10
59.9606
20
-93.265
11
59.8597
21
-92.9876
0
LINE
8
Black
10
59.8597
20
-92.9876
11
59.8597
21
-92.6924
0
LINE
8
Black
10
59.8597
20
-92.6924
11
59.9606
21
-92.415
0
LINE
8
Black
10
59.9606
20
-92.415
11
60.1504
21
-92.1889
0
LINE
8
Black
10
60.1504
20
-92.1889
11
60.406
21
-92.0413
0
LINE
8
Black
10
60.406
20
-92.0413
11
60.6968
21
-91.99
0
LINE
8
Black
10
60.6968
20
-91.99
11
60.7032
21
-91.99
0
LINE
8
Black
10
60.7032
20
-91.99
11
60.994
21
-92.0413
0
LINE
8
Black
10
134.712
20
-92.1012
11
134.942
21
-92.234
0
LINE
8
Black
10
134.942
20
-92.234
11
135.112
21
-92.4375
0
LINE
8
Black
10
135.112
20
-92.4375
11
135.203
21
-92.6872
0
LINE
8
Black
10
135.203
20
-92.6872
11
135.203
21
-92.9528
0
LINE
8
Black
10
135.203
20
-92.9528
11
135.112
21
-93.2025
0
LINE
8
Black
10
135.112
20
-93.2025
11
134.942
21
-93.406
0
LINE
8
Black
10
134.942
20
-93.406
11
134.712
21
-93.5388
0
LINE
8
Black
10
134.712
20
-93.5388
11
134.45
21
-93.5849
0
LINE
8
Black
10
134.45
20
-93.5849
11
134.188
21
-93.5388
0
LINE
8
Black
10
134.188
20
-93.5388
11
133.958
21
-93.406
0
LINE
8
Black
10
133.958
20
-93.406
11
133.788
21
-93.2025
0
LINE
8
Black
10
133.788
20
-93.2025
11
133.697
21
-92.9528
0
LINE
8
Black
10
133.697
20
-92.9528
11
133.697
21
-92.6872
0
LINE
8
Black
10
133.697
20
-92.6872
11
133.788
21
-92.4375
0
LINE
8
Black
10
133.788
20
-92.4375
11
133.958
21
-92.234
0
LINE
8
Black
10
133.958
20
-92.234
11
134.188
21
-92.1012
0
LINE
8
Black
10
134.188
20
-92.1012
11
134.45
21
-92.0551
0
LINE
8
Black
10
134.45
20
-92.0551
11
134.712
21
-92.1012
0
LINE
8
Black
10
111.312
20
-92.1012
11
111.542
21
-92.234
0
LINE
8
Black
10
111.542
20
-92.234
11
111.712
21
-92.4375
0
LINE
8
Black
10
111.712
20
-92.4375
11
111.803
21
-92.6872
0
LINE
8
Black
10
111.803
20
-92.6872
11
111.803
21
-92.9528
0
LINE
8
Black
10
111.803
20
-92.9528
11
111.712
21
-93.2025
0
LINE
8
Black
10
111.712
20
-93.2025
11
111.542
21
-93.406
0
LINE
8
Black
10
111.542
20
-93.406
11
111.312
21
-93.5388
0
LINE
8
Black
10
111.312
20
-93.5388
11
111.05
21
-93.5849
0
LINE
8
Black
10
111.05
20
-93.5849
11
110.788
21
-93.5388
0
LINE
8
Black
10
110.788
20
-93.5388
11
110.558
21
-93.406
0
LINE
8
Black
10
110.558
20
-93.406
11
110.388
21
-93.2025
0
LINE
8
Black
10
110.388
20
-93.2025
11
110.297
21
-92.9528
0
LINE
8
Black
10
110.297
20
-92.9528
11
110.297
21
-92.6872
0
LINE
8
Black
10
110.297
20
-92.6872
11
110.388
21
-92.4375
0
LINE
8
Black
10
110.388
20
-92.4375
11
110.558
21
-92.234
0
LINE
8
Black
10
110.558
20
-92.234
11
110.788
21
-92.1012
0
LINE
8
Black
10
110.788
20
-92.1012
11
111.05
21
-92.0551
0
LINE
8
Black
10
111.05
20
-92.0551
11
111.312
21
-92.1012
0
LINE
8
Black
10
102.474
20
-91.7213
11
102.73
21
-91.8689
0
LINE
8
Black
10
102.73
20
-91.8689
11
102.919
21
-92.095
0
LINE
8
Black
10
102.919
20
-92.095
11
103.02
21
-92.3724
0
LINE
8
Black
10
103.02
20
-92.3724
11
103.02
21
-92.6676
0
LINE
8
Black
10
103.02
20
-92.6676
11
102.919
21
-92.945
0
LINE
8
Black
10
102.919
20
-92.945
11
102.73
21
-93.1711
0
LINE
8
Black
10
102.73
20
-93.1711
11
102.474
21
-93.3187
0
LINE
8
Black
10
102.474
20
-93.3187
11
102.183
21
-93.37
0
LINE
8
Black
10
102.183
20
-93.37
11
102.177
21
-93.37
0
LINE
8
Black
10
102.177
20
-93.37
11
101.886
21
-93.3187
0
LINE
8
Black
10
101.886
20
-93.3187
11
101.63
21
-93.1711
0
LINE
8
Black
10
101.63
20
-93.1711
11
101.441
21
-92.945
0
LINE
8
Black
10
101.441
20
-92.945
11
101.34
21
-92.6676
0
LINE
8
Black
10
101.34
20
-92.6676
11
101.34
21
-92.3724
0
LINE
8
Black
10
101.34
20
-92.3724
11
101.441
21
-92.095
0
LINE
8
Black
10
101.441
20
-92.095
11
101.63
21
-91.8689
0
LINE
8
Black
10
101.63
20
-91.8689
11
101.886
21
-91.7213
0
LINE
8
Black
10
101.886
20
-91.7213
11
102.177
21
-91.67
0
LINE
8
Black
10
102.177
20
-91.67
11
102.183
21
-91.67
0
LINE
8
Black
10
102.183
20
-91.67
11
102.474
21
-91.7213
0
LINE
8
Black
10
61.55
20
-91.15
11
59.85
21
-91.15
0
LINE
8
Black
10
59.85
20
-91.15
11
59.85
21
-89.45
0
LINE
8
Black
10
59.85
20
-89.45
11
61.55
21
-89.45
0
LINE
8
Black
10
61.55
20
-89.45
11
61.55
21
-91.15
0
LINE
8
Black
10
134.712
20
-89.5612
11
134.942
21
-89.694
0
LINE
8
Black
10
134.942
20
-89.694
11
135.112
21
-89.8975
0
LINE
8
Black
10
135.112
20
-89.8975
11
135.203
21
-90.1472
0
LINE
8
Black
10
135.203
20
-90.1472
11
135.203
21
-90.4128
0
LINE
8
Black
10
135.203
20
-90.4128
11
135.112
21
-90.6625
0
LINE
8
Black
10
135.112
20
-90.6625
11
134.942
21
-90.866
0
LINE
8
Black
10
134.942
20
-90.866
11
134.712
21
-90.9988
0
LINE
8
Black
10
134.712
20
-90.9988
11
134.45
21
-91.0449
0
LINE
8
Black
10
134.45
20
-91.0449
11
134.188
21
-90.9988
0
LINE
8
Black
10
134.188
20
-90.9988
11
133.958
21
-90.866
0
LINE
8
Black
10
133.958
20
-90.866
11
133.788
21
-90.6625
0
LINE
8
Black
10
133.788
20
-90.6625
11
133.697
21
-90.4128
0
LINE
8
Black
10
133.697
20
-90.4128
11
133.697
21
-90.1472
0
LINE
8
Black
10
133.697
20
-90.1472
11
133.788
21
-89.8975
0
LINE
8
Black
10
133.788
20
-89.8975
11
133.958
21
-89.694
0
LINE
8
Black
10
133.958
20
-89.694
11
134.188
21
-89.5612
0
LINE
8
Black
10
134.188
20
-89.5612
11
134.45
21
-89.5151
0
LINE
8
Black
10
134.45
20
-89.5151
11
134.712
21
-89.5612
0
LINE
8
Black
10
111.312
20
-89.5612
11
111.542
21
-89.694
0
LINE
8
Black
10
111.542
20
-89.694
11
111.712
21
-89.8975
0
LINE
8
Black
10
111.712
20
-89.8975
11
111.803
21
-90.1472
0
LINE
8
Black
10
111.803
20
-90.1472
11
111.803
21
-90.4128
0
LINE
8
Black
10
111.803
20
-90.4128
11
111.712
21
-90.6625
0
LINE
8
Black
10
111.712
20
-90.6625
11
111.542
21
-90.866
0
LINE
8
Black
10
111.542
20
-90.866
11
111.312
21
-90.9988
0
LINE
8
Black
10
111.312
20
-90.9988
11
111.05
21
-91.0449
0
LINE
8
Black
10
111.05
20
-91.0449
11
110.788
21
-90.9988
0
LINE
8
Black
10
110.788
20
-90.9988
11
110.558
21
-90.866
0
LINE
8
Black
10
110.558
20
-90.866
11
110.388
21
-90.6625
0
LINE
8
Black
10
110.388
20
-90.6625
11
110.297
21
-90.4128
0
LINE
8
Black
10
110.297
20
-90.4128
11
110.297
21
-90.1472
0
LINE
8
Black
10
110.297
20
-90.1472
11
110.388
21
-89.8975
0
LINE
8
Black
10
110.388
20
-89.8975
11
110.558
21
-89.694
0
LINE
8
Black
10
110.558
20
-89.694
11
110.788
21
-89.5612
0
LINE
8
Black
10
110.788
20
-89.5612
11
111.05
21
-89.5151
0
LINE
8
Black
10
111.05
20
-89.5151
11
111.312
21
-89.5612
0
LINE
8
Black
10
103.03
20
-90.83
11
101.33
21
-90.83
0
LINE
8
Black
10
101.33
20
-90.83
11
101.33
21
-89.13
0
LINE
8
Black
10
101.33
20
-89.13
11
103.03
21
-89.13
0
LINE
8
Black
10
103.03
20
-89.13
11
103.03
21
-90.83
0
LINE
8
Black
10
69.717
20
-67.7141
11
70.4839
21
-68.1568
0
LINE
8
Black
10
70.4839
20
-68.1568
11
71.0531
21
-68.8351
0
LINE
8
Black
10
71.0531
20
-68.8351
11
71.356
21
-69.6672
0
LINE
8
Black
10
71.356
20
-69.6672
11
71.356
21
-70.5528
0
LINE
8
Black
10
71.356
20
-70.5528
11
71.0531
21
-71.3849
0
LINE
8
Black
10
71.0531
20
-71.3849
11
70.4839
21
-72.0632
0
LINE
8
Black
10
70.4839
20
-72.0632
11
69.717
21
-72.5059
0
LINE
8
Black
10
69.717
20
-72.5059
11
68.845
21
-72.6597
0
LINE
8
Black
10
68.845
20
-72.6597
11
67.973
21
-72.5059
0
LINE
8
Black
10
67.973
20
-72.5059
11
67.2061
21
-72.0632
0
LINE
8
Black
10
67.2061
20
-72.0632
11
66.6369
21
-71.3849
0
LINE
8
Black
10
66.6369
20
-71.3849
11
66.334
21
-70.5528
0
LINE
8
Black
10
66.334
20
-70.5528
11
66.334
21
-69.6672
0
LINE
8
Black
10
66.334
20
-69.6672
11
66.6369
21
-68.8351
0
LINE
8
Black
10
66.6369
20
-68.8351
11
67.2061
21
-68.1568
0
LINE
8
Black
10
67.2061
20
-68.1568
11
67.973
21
-67.7141
0
LINE
8
Black
10
67.973
20
-67.7141
11
68.845
21
-67.5603
0
LINE
8
Black
10
68.845
20
-67.5603
11
69.717
21
-67.7141
0
LINE
8
Black
10
125.327
20
-67.7141
11
126.094
21
-68.1568
0
LINE
8
Black
10
126.094
20
-68.1568
11
126.663
21
-68.8351
0
LINE
8
Black
10
126.663
20
-68.8351
11
126.966
21
-69.6672
0
LINE
8
Black
10
126.966
20
-69.6672
11
126.966
21
-70.5528
0
LINE
8
Black
10
126.966
20
-70.5528
11
126.663
21
-71.3849
0
LINE
8
Black
10
126.663
20
-71.3849
11
126.094
21
-72.0632
0
LINE
8
Black
10
126.094
20
-72.0632
11
125.327
21
-72.5059
0
LINE
8
Black
10
125.327
20
-72.5059
11
124.455
21
-72.6597
0
LINE
8
Black
10
124.455
20
-72.6597
11
123.583
21
-72.5059
0
LINE
8
Black
10
123.583
20
-72.5059
11
122.816
21
-72.0632
0
LINE
8
Black
10
122.816
20
-72.0632
11
122.247
21
-71.3849
0
LINE
8
Black
10
122.247
20
-71.3849
11
121.944
21
-70.5528
0
LINE
8
Black
10
121.944
20
-70.5528
11
121.944
21
-69.6672
0
LINE
8
Black
10
121.944
20
-69.6672
11
122.247
21
-68.8351
0
LINE
8
Black
10
122.247
20
-68.8351
11
122.816
21
-68.1568
0
LINE
8
Black
10
122.816
20
-68.1568
11
123.583
21
-67.7141
0
LINE
8
Black
10
123.583
20
-67.7141
11
124.455
21
-67.5603
0
LINE
8
Black
10
124.455
20
-67.5603
11
125.327
21
-67.7141
0
LINE
8
Black
10
61.58
20
-72.51
11
58.82
21
-72.51
0
LINE
8
Black
10
58.82
20
-72.51
11
58.82
21
-67.71
0
LINE
8
Black
10
58.82
20
-67.71
11
61.58
21
-67.71
0
LINE
8
Black
10
61.58
20
-67.71
11
61.58
21
-72.51
0
LINE
8
Black
10
133.79
20
-67.8857
11
134.157
21
-68.1938
0
LINE
8
Black
10
134.157
20
-68.1938
11
134.397
21
-68.6088
0
LINE
8
Black
10
134.397
20
-68.6088
11
134.48
21
-69.0808
0
LINE
8
Black
10
134.48
20
-69.0808
11
134.48
21
-71.1392
0
LINE
8
Black
10
134.48
20
-71.1392
11
134.397
21
-71.6112
0
LINE
8
Black
10
134.397
20
-71.6112
11
134.157
21
-72.0262
0
LINE
8
Black
10
134.157
20
-72.0262
11
133.79
21
-72.3343
0
LINE
8
Black
10
133.79
20
-72.3343
11
133.34
21
-72.4982
0
LINE
8
Black
10
133.34
20
-72.4982
11
132.86
21
-72.4982
0
LINE
8
Black
10
132.86
20
-72.4982
11
132.41
21
-72.3343
0
LINE
8
Black
10
132.41
20
-72.3343
11
132.043
21
-72.0262
0
LINE
8
Black
10
132.043
20
-72.0262
11
131.803
21
-71.6112
0
LINE
8
Black
10
131.803
20
-71.6112
11
131.72
21
-71.1392
0
LINE
8
Black
10
131.72
20
-71.1392
11
131.72
21
-69.0808
0
LINE
8
Black
10
131.72
20
-69.0808
11
131.803
21
-68.6088
0
LINE
8
Black
10
131.803
20
-68.6088
11
132.043
21
-68.1938
0
LINE
8
Black
10
132.043
20
-68.1938
11
132.41
21
-67.8857
0
LINE
8
Black
10
132.41
20
-67.8857
11
132.86
21
-67.7218
0
LINE
8
Black
10
132.86
20
-67.7218
11
133.34
21
-67.7218
0
LINE
8
Black
10
133.34
20
-67.7218
11
133.79
21
-67.8857
  0
ENDSEC
  0
EOF
