 0
SECTION
 2
ENTITIES
  0
POLYLINE
 8
Layer0
 66
     1
70
    8
 10
0.0
 20
 0.0
 30
0.0
  0
VERTEX
  8
MY3DLAYER
10
9.48606993329819
20
81.3495216524369
30
0.0
 70
     32
  0
VERTEX
  8
MY3DLAYER
10
83.3349337880062
20
81.349521652437
30
0.0
 70
     32
  0
VERTEX
  8
MY3DLAYER
10
83.9875647491064
20
81.306745959306
30
0.0
 70
     32
  0
VERTEX
  8
MY3DLAYER
10
84.6290290135188
20
81.1791507838823
30
0.0
 70
     32
  0
VERTEX
  8
MY3DLAYER
10
85.2483509498316
20
80.9689193149934
30
0.0
 70
     32
  0
VERTEX
  8
MY3DLAYER
10
85.8349337880062
20
80.6796486713591
30
0.0
 70
     32
  0
VERTEX
  8
MY3DLAYER
10
86.3787409330498
20
80.3162883538931
30
0.0
 70
     32
  0
VERTEX
  8
MY3DLAYER
10
86.8704676939389
20
79.8850555583697
30
0.0
 70
     32
  0
VERTEX
  8
MY3DLAYER
10
87.3017004894624
20
79.3933287974805
30
0.0
 70
     32
  0
VERTEX
  8
MY3DLAYER
10
87.6650608069284
20
78.8495216524369
30
0.0
 70
     32
  0
VERTEX
  8
MY3DLAYER
10
87.9543314505626
20
78.2629388142624
30
0.0
 70
     32
  0
VERTEX
  8
MY3DLAYER
10
88.1645629194515
20
77.6436168779495
30
0.0
 70
     32
  0
VERTEX
  8
MY3DLAYER
10
88.2921580948752
20
77.0021526135372
30
0.0
 70
     32
  0
VERTEX
  8
MY3DLAYER
10
88.3349337880062
20
76.3495216524369
30
0.0
 70
     32
  0
VERTEX
  8
MY3DLAYER
10
88.3349337880062
20
7.70562165243696
30
0.0
 70
     32
  0
VERTEX
  8
MY3DLAYER
10
88.2921580948752
20
7.0529906913367
30
0.0
 70
     32
  0
VERTEX
  8
MY3DLAYER
10
88.1645629194515
20
6.41152642692436
30
0.0
 70
     32
  0
VERTEX
  8
MY3DLAYER
10
87.9543314505626
20
5.79220449061151
30
0.0
 70
     32
  0
VERTEX
  8
MY3DLAYER
10
87.6650608069284
20
5.20562165243696
30
0.0
 70
     32
  0
VERTEX
  8
MY3DLAYER
10
87.3017004894624
20
4.66181450739336
30
0.0
 70
     32
  0
VERTEX
  8
MY3DLAYER
10
86.8704676939389
20
4.17008774650422
30
0.0
 70
     32
  0
VERTEX
  8
MY3DLAYER
10
86.3787409330498
20
3.73885495098079
30
0.0
 70
     32
  0
VERTEX
  8
MY3DLAYER
10
85.8349337880062
20
3.37549463351477
30
0.0
 70
     32
  0
VERTEX
  8
MY3DLAYER
10
85.2483509498316
20
3.08622398988053
30
0.0
 70
     32
  0
VERTEX
  8
MY3DLAYER
10
84.6290290135188
20
2.87599252099162
30
0.0
 70
     32
  0
VERTEX
  8
MY3DLAYER
10
83.9875647491064
20
2.74839734556791
30
0.0
 70
     32
  0
VERTEX
  8
MY3DLAYER
10
83.3349337880062
20
2.70562165243696
30
0.0
 70
     32
  0
VERTEX
  8
MY3DLAYER
10
9.4860699332982
20
2.70562165243696
30
0.0
 70
     32
  0
VERTEX
  8
MY3DLAYER
10
8.83343897219794
20
2.74839734556791
30
0.0
 70
     32
  0
VERTEX
  8
MY3DLAYER
10
8.19197470778559
20
2.87599252099162
30
0.0
 70
     32
  0
VERTEX
  8
MY3DLAYER
10
7.57265277147275
20
3.08622398988053
30
0.0
 70
     32
  0
VERTEX
  8
MY3DLAYER
10
6.9860699332982
20
3.37549463351477
30
0.0
 70
     32
  0
VERTEX
  8
MY3DLAYER
10
6.44226278825459
20
3.73885495098079
30
0.0
 70
     32
  0
VERTEX
  8
MY3DLAYER
10
5.95053602736546
20
4.17008774650422
30
0.0
 70
     32
  0
VERTEX
  8
MY3DLAYER
10
5.51930323184202
20
4.66181450739336
30
0.0
 70
     32
  0
VERTEX
  8
MY3DLAYER
10
5.155942914376
20
5.20562165243696
30
0.0
 70
     32
  0
VERTEX
  8
MY3DLAYER
10
4.86667227074176
20
5.79220449061151
30
0.0
 70
     32
  0
VERTEX
  8
MY3DLAYER
10
4.65644080185286
20
6.41152642692436
30
0.0
 70
     32
  0
VERTEX
  8
MY3DLAYER
10
4.52884562642915
20
7.0529906913367
30
0.0
 70
     32
  0
VERTEX
  8
MY3DLAYER
10
4.4860699332982
20
7.70562165243696
30
0.0
 70
     32
  0
VERTEX
  8
MY3DLAYER
10
4.4860699332982
20
76.3495216524369
30
0.0
 70
     32
  0
VERTEX
  8
MY3DLAYER
10
4.52884562642915
20
77.0021526135372
30
0.0
 70
     32
  0
VERTEX
  8
MY3DLAYER
10
4.65644080185286
20
77.6436168779495
30
0.0
 70
     32
  0
VERTEX
  8
MY3DLAYER
10
4.86667227074176
20
78.2629388142624
30
0.0
 70
     32
  0
VERTEX
  8
MY3DLAYER
10
5.155942914376
20
78.8495216524369
30
0.0
 70
     32
  0
VERTEX
  8
MY3DLAYER
10
5.51930323184202
20
79.3933287974805
30
0.0
 70
     32
  0
VERTEX
  8
MY3DLAYER
10
5.95053602736546
20
79.8850555583697
30
0.0
 70
     32
  0
VERTEX
  8
MY3DLAYER
10
6.44226278825459
20
80.3162883538931
30
0.0
 70
     32
  0
VERTEX
  8
MY3DLAYER
10
6.98606993329819
20
80.6796486713591
30
0.0
 70
     32
  0
VERTEX
  8
MY3DLAYER
10
7.57265277147274
20
80.9689193149934
30
0.0
 70
     32
  0
VERTEX
  8
MY3DLAYER
10
8.19197470778559
20
81.1791507838823
30
0.0
 70
     32
  0
VERTEX
  8
MY3DLAYER
10
8.83343897219794
20
81.306745959306
30
0.0
 70
     32
  0
VERTEX
  8
MY3DLAYER
10
9.48606993329819
20
81.3495216524369
30
0.0
 70
     32
  0
SEQEND
 0
ENDSEC
 0
EOF
