 0
SECTION
 2
ENTITIES
  0
POLYLINE
 8
Layer0
 66
     1
70
    8
 10
0.0
 20
 0.0
 30
0.0
  0
VERTEX
  8
MY3DLAYER
10
10.5
20
-18.38
30
0.0
 70
     32
  0
VERTEX
  8
MY3DLAYER
10
10.5
20
-23.48
30
0.0
 70
     32
  0
VERTEX
  8
MY3DLAYER
10
10.6
20
-23.88
30
0.0
 70
     32
  0
VERTEX
  8
MY3DLAYER
10
2.9
20
-23.88
30
0.0
 70
     32
  0
VERTEX
  8
MY3DLAYER
10
3.0
20
-23.48
30
0.0
 70
     32
  0
VERTEX
  8
MY3DLAYER
10
3.0
20
-18.38
30
0.0
 70
     32
  0
VERTEX
  8
MY3DLAYER
10
10.5
20
-18.38
30
0.0
 70
     32
  0
SEQEND
  0
POLYLINE
 8
Layer0
 66
     1
70
    8
 10
0.0
 20
 0.0
 30
0.0
  0
VERTEX
  8
MY3DLAYER
10
12.7
20
-23.48
30
0.0
 70
     32
  0
VERTEX
  8
MY3DLAYER
10
10.5
20
-23.48
30
0.0
 70
     32
  0
VERTEX
  8
MY3DLAYER
10
10.5
20
-18.38
30
0.0
 70
     32
  0
VERTEX
  8
MY3DLAYER
10
3.0
20
-18.38
30
0.0
 70
     32
  0
VERTEX
  8
MY3DLAYER
10
3.0
20
-23.48
30
0.0
 70
     32
  0
VERTEX
  8
MY3DLAYER
10
-12.7
20
-23.48
30
0.0
 70
     32
  0
VERTEX
  8
MY3DLAYER
10
-12.7
20
23.48
30
0.0
 70
     32
  0
VERTEX
  8
MY3DLAYER
10
-12.6134515987742
20
24.1374003745604
30
0.0
 70
     32
  0
VERTEX
  8
MY3DLAYER
10
-12.5066540125787
20
24.4520159182073
30
0.0
 70
     32
  0
VERTEX
  8
MY3DLAYER
10
-12.3597045256125
20
24.75
30
0.0
 70
     32
  0
VERTEX
  8
MY3DLAYER
10
-12.1751174843397
20
25.0262540296821
30
0.0
 70
     32
  0
VERTEX
  8
MY3DLAYER
10
-11.9560512242138
20
25.2760512242138
30
0.0
 70
     32
  0
VERTEX
  8
MY3DLAYER
10
-11.7062540296822
20
25.4951174843397
30
0.0
 70
     32
  0
VERTEX
  8
MY3DLAYER
10
-11.43
20
25.6797045256125
30
0.0
 70
     32
  0
VERTEX
  8
MY3DLAYER
10
-11.1320159182073
20
25.8266540125787
30
0.0
 70
     32
  0
VERTEX
  8
MY3DLAYER
10
-10.8174003745604
20
25.9334515987742
30
0.0
 70
     32
  0
VERTEX
  8
MY3DLAYER
10
-10.16
20
26.02
30
0.0
 70
     32
  0
VERTEX
  8
MY3DLAYER
10
10.16
20
26.02
30
0.0
 70
     32
  0
VERTEX
  8
MY3DLAYER
10
10.8174003745604
20
25.9334515987742
30
0.0
 70
     32
  0
VERTEX
  8
MY3DLAYER
10
11.1320159182073
20
25.8266540125787
30
0.0
 70
     32
  0
VERTEX
  8
MY3DLAYER
10
11.43
20
25.6797045256125
30
0.0
 70
     32
  0
VERTEX
  8
MY3DLAYER
10
11.7062540296822
20
25.4951174843397
30
0.0
 70
     32
  0
VERTEX
  8
MY3DLAYER
10
11.9560512242138
20
25.2760512242138
30
0.0
 70
     32
  0
VERTEX
  8
MY3DLAYER
10
12.1751174843397
20
25.0262540296821
30
0.0
 70
     32
  0
VERTEX
  8
MY3DLAYER
10
12.3597045256125
20
24.75
30
0.0
 70
     32
  0
VERTEX
  8
MY3DLAYER
10
12.5066540125787
20
24.4520159182073
30
0.0
 70
     32
  0
VERTEX
  8
MY3DLAYER
10
12.6134515987742
20
24.1374003745604
30
0.0
 70
     32
  0
VERTEX
  8
MY3DLAYER
10
12.7
20
23.48
30
0.0
 70
     32
  0
VERTEX
  8
MY3DLAYER
10
12.7
20
-23.48
30
0.0
 70
     32
  0
SEQEND
  0
POLYLINE
 8
Layer0
 66
     1
70
    8
 10
0.0
 20
 0.0
 30
0.0
  0
VERTEX
  8
MY3DLAYER
10
11.2170370868555
20
-11.9505904774487
30
0.0
 70
     32
  0
VERTEX
  8
MY3DLAYER
10
11.2
20
-12.08
30
0.0
 70
     32
  0
VERTEX
  8
MY3DLAYER
10
11.2170370868555
20
-12.2094095225513
30
0.0
 70
     32
  0
VERTEX
  8
MY3DLAYER
10
11.2669872981078
20
-12.33
30
0.0
 70
     32
  0
VERTEX
  8
MY3DLAYER
10
11.3464466094067
20
-12.4335533905933
30
0.0
 70
     32
  0
VERTEX
  8
MY3DLAYER
10
11.45
20
-12.5130127018922
30
0.0
 70
     32
  0
VERTEX
  8
MY3DLAYER
10
11.5705904774487
20
-12.5629629131445
30
0.0
 70
     32
  0
VERTEX
  8
MY3DLAYER
10
11.7
20
-12.58
30
0.0
 70
     32
  0
VERTEX
  8
MY3DLAYER
10
11.8294095225513
20
-12.5629629131445
30
0.0
 70
     32
  0
VERTEX
  8
MY3DLAYER
10
11.95
20
-12.5130127018922
30
0.0
 70
     32
  0
VERTEX
  8
MY3DLAYER
10
12.0535533905933
20
-12.4335533905933
30
0.0
 70
     32
  0
VERTEX
  8
MY3DLAYER
10
12.1330127018922
20
-12.33
30
0.0
 70
     32
  0
VERTEX
  8
MY3DLAYER
10
12.1829629131445
20
-12.2094095225513
30
0.0
 70
     32
  0
VERTEX
  8
MY3DLAYER
10
12.2
20
-12.08
30
0.0
 70
     32
  0
VERTEX
  8
MY3DLAYER
10
12.1829629131445
20
-11.9505904774487
30
0.0
 70
     32
  0
VERTEX
  8
MY3DLAYER
10
12.1330127018922
20
-11.83
30
0.0
 70
     32
  0
VERTEX
  8
MY3DLAYER
10
12.0535533905933
20
-11.7264466094067
30
0.0
 70
     32
  0
VERTEX
  8
MY3DLAYER
10
11.95
20
-11.6469872981078
30
0.0
 70
     32
  0
VERTEX
  8
MY3DLAYER
10
11.8294095225513
20
-11.5970370868555
30
0.0
 70
     32
  0
VERTEX
  8
MY3DLAYER
10
11.7
20
-11.58
30
0.0
 70
     32
  0
VERTEX
  8
MY3DLAYER
10
11.5705904774487
20
-11.5970370868555
30
0.0
 70
     32
  0
VERTEX
  8
MY3DLAYER
10
11.45
20
-11.6469872981078
30
0.0
 70
     32
  0
VERTEX
  8
MY3DLAYER
10
11.3464466094067
20
-11.7264466094067
30
0.0
 70
     32
  0
VERTEX
  8
MY3DLAYER
10
11.2669872981078
20
-11.83
30
0.0
 70
     32
  0
VERTEX
  8
MY3DLAYER
10
11.2170370868555
20
-11.9505904774487
30
0.0
 70
     32
  0
SEQEND
  0
POLYLINE
 8
Layer0
 66
     1
70
    8
 10
0.0
 20
 0.0
 30
0.0
  0
VERTEX
  8
MY3DLAYER
10
11.3464466094067
20
18.0664466094067
30
0.0
 70
     32
  0
VERTEX
  8
MY3DLAYER
10
11.45
20
17.9869872981078
30
0.0
 70
     32
  0
VERTEX
  8
MY3DLAYER
10
11.5705904774487
20
17.9370370868555
30
0.0
 70
     32
  0
VERTEX
  8
MY3DLAYER
10
11.7
20
17.92
30
0.0
 70
     32
  0
VERTEX
  8
MY3DLAYER
10
11.8294095225513
20
17.9370370868554
30
0.0
 70
     32
  0
VERTEX
  8
MY3DLAYER
10
11.95
20
17.9869872981078
30
0.0
 70
     32
  0
VERTEX
  8
MY3DLAYER
10
12.0535533905933
20
18.0664466094067
30
0.0
 70
     32
  0
VERTEX
  8
MY3DLAYER
10
12.1330127018922
20
18.17
30
0.0
 70
     32
  0
VERTEX
  8
MY3DLAYER
10
12.1829629131445
20
18.2905904774487
30
0.0
 70
     32
  0
VERTEX
  8
MY3DLAYER
10
12.2
20
18.42
30
0.0
 70
     32
  0
VERTEX
  8
MY3DLAYER
10
12.1829629131445
20
18.5494095225512
30
0.0
 70
     32
  0
VERTEX
  8
MY3DLAYER
10
12.1330127018922
20
18.67
30
0.0
 70
     32
  0
VERTEX
  8
MY3DLAYER
10
12.0535533905933
20
18.7735533905932
30
0.0
 70
     32
  0
VERTEX
  8
MY3DLAYER
10
11.95
20
18.8530127018922
30
0.0
 70
     32
  0
VERTEX
  8
MY3DLAYER
10
11.8294095225513
20
18.9029629131445
30
0.0
 70
     32
  0
VERTEX
  8
MY3DLAYER
10
11.7
20
18.92
30
0.0
 70
     32
  0
VERTEX
  8
MY3DLAYER
10
11.5705904774487
20
18.9029629131445
30
0.0
 70
     32
  0
VERTEX
  8
MY3DLAYER
10
11.45
20
18.8530127018922
30
0.0
 70
     32
  0
VERTEX
  8
MY3DLAYER
10
11.3464466094067
20
18.7735533905933
30
0.0
 70
     32
  0
VERTEX
  8
MY3DLAYER
10
11.2669872981078
20
18.67
30
0.0
 70
     32
  0
VERTEX
  8
MY3DLAYER
10
11.2170370868555
20
18.5494095225512
30
0.0
 70
     32
  0
VERTEX
  8
MY3DLAYER
10
11.2
20
18.42
30
0.0
 70
     32
  0
VERTEX
  8
MY3DLAYER
10
11.2170370868555
20
18.2905904774487
30
0.0
 70
     32
  0
VERTEX
  8
MY3DLAYER
10
11.2669872981078
20
18.17
30
0.0
 70
     32
  0
VERTEX
  8
MY3DLAYER
10
11.3464466094067
20
18.0664466094067
30
0.0
 70
     32
  0
SEQEND
  0
POLYLINE
 8
Layer0
 66
     1
70
    8
 10
0.0
 20
 0.0
 30
0.0
  0
VERTEX
  8
MY3DLAYER
10
9.89289321881345
20
-16.1871067811866
30
0.0
 70
     32
  0
VERTEX
  8
MY3DLAYER
10
10.1
20
-16.3460254037844
30
0.0
 70
     32
  0
VERTEX
  8
MY3DLAYER
10
10.3411809548975
20
-16.4459258262891
30
0.0
 70
     32
  0
VERTEX
  8
MY3DLAYER
10
10.6
20
-16.48
30
0.0
 70
     32
  0
VERTEX
  8
MY3DLAYER
10
10.8588190451025
20
-16.4459258262891
30
0.0
 70
     32
  0
VERTEX
  8
MY3DLAYER
10
11.1
20
-16.3460254037844
30
0.0
 70
     32
  0
VERTEX
  8
MY3DLAYER
10
11.3071067811865
20
-16.1871067811866
30
0.0
 70
     32
  0
VERTEX
  8
MY3DLAYER
10
11.4660254037844
20
-15.98
30
0.0
 70
     32
  0
VERTEX
  8
MY3DLAYER
10
11.5659258262891
20
-15.7388190451025
30
0.0
 70
     32
  0
VERTEX
  8
MY3DLAYER
10
11.6
20
-15.48
30
0.0
 70
     32
  0
VERTEX
  8
MY3DLAYER
10
11.5659258262891
20
-15.2211809548975
30
0.0
 70
     32
  0
VERTEX
  8
MY3DLAYER
10
11.4660254037844
20
-14.98
30
0.0
 70
     32
  0
VERTEX
  8
MY3DLAYER
10
11.3071067811865
20
-14.7728932188135
30
0.0
 70
     32
  0
VERTEX
  8
MY3DLAYER
10
11.1
20
-14.6139745962156
30
0.0
 70
     32
  0
VERTEX
  8
MY3DLAYER
10
10.8588190451025
20
-14.5140741737109
30
0.0
 70
     32
  0
VERTEX
  8
MY3DLAYER
10
10.6
20
-14.48
30
0.0
 70
     32
  0
VERTEX
  8
MY3DLAYER
10
10.3411809548975
20
-14.5140741737109
30
0.0
 70
     32
  0
VERTEX
  8
MY3DLAYER
10
10.1
20
-14.6139745962156
30
0.0
 70
     32
  0
VERTEX
  8
MY3DLAYER
10
9.89289321881345
20
-14.7728932188135
30
0.0
 70
     32
  0
VERTEX
  8
MY3DLAYER
10
9.73397459621556
20
-14.98
30
0.0
 70
     32
  0
VERTEX
  8
MY3DLAYER
10
9.63407417371093
20
-15.2211809548975
30
0.0
 70
     32
  0
VERTEX
  8
MY3DLAYER
10
9.6
20
-15.48
30
0.0
 70
     32
  0
VERTEX
  8
MY3DLAYER
10
9.63407417371093
20
-15.7388190451025
30
0.0
 70
     32
  0
VERTEX
  8
MY3DLAYER
10
9.73397459621556
20
-15.98
30
0.0
 70
     32
  0
VERTEX
  8
MY3DLAYER
10
9.89289321881345
20
-16.1871067811866
30
0.0
 70
     32
  0
SEQEND
  0
POLYLINE
 8
Layer0
 66
     1
70
    8
 10
0.0
 20
 0.0
 30
0.0
  0
VERTEX
  8
MY3DLAYER
10
-10.3
20
22.32
30
0.0
 70
     32
  0
VERTEX
  8
MY3DLAYER
10
-10.0411809548975
20
22.3540741737109
30
0.0
 70
     32
  0
VERTEX
  8
MY3DLAYER
10
-9.8
20
22.4539745962155
30
0.0
 70
     32
  0
VERTEX
  8
MY3DLAYER
10
-9.59289321881345
20
22.6128932188134
30
0.0
 70
     32
  0
VERTEX
  8
MY3DLAYER
10
-9.43397459621556
20
22.82
30
0.0
 70
     32
  0
VERTEX
  8
MY3DLAYER
10
-9.33407417371093
20
23.0611809548975
30
0.0
 70
     32
  0
VERTEX
  8
MY3DLAYER
10
-9.3
20
23.32
30
0.0
 70
     32
  0
VERTEX
  8
MY3DLAYER
10
-9.33407417371093
20
23.5788190451025
30
0.0
 70
     32
  0
VERTEX
  8
MY3DLAYER
10
-9.43397459621556
20
23.82
30
0.0
 70
     32
  0
VERTEX
  8
MY3DLAYER
10
-9.59289321881345
20
24.0271067811865
30
0.0
 70
     32
  0
VERTEX
  8
MY3DLAYER
10
-9.8
20
24.1860254037844
30
0.0
 70
     32
  0
VERTEX
  8
MY3DLAYER
10
-10.0411809548975
20
24.2859258262891
30
0.0
 70
     32
  0
VERTEX
  8
MY3DLAYER
10
-10.3
20
24.32
30
0.0
 70
     32
  0
VERTEX
  8
MY3DLAYER
10
-10.5588190451025
20
24.2859258262891
30
0.0
 70
     32
  0
VERTEX
  8
MY3DLAYER
10
-10.8
20
24.1860254037844
30
0.0
 70
     32
  0
VERTEX
  8
MY3DLAYER
10
-11.0071067811865
20
24.0271067811865
30
0.0
 70
     32
  0
VERTEX
  8
MY3DLAYER
10
-11.1660254037844
20
23.82
30
0.0
 70
     32
  0
VERTEX
  8
MY3DLAYER
10
-11.2659258262891
20
23.5788190451025
30
0.0
 70
     32
  0
VERTEX
  8
MY3DLAYER
10
-11.3
20
23.32
30
0.0
 70
     32
  0
VERTEX
  8
MY3DLAYER
10
-11.2659258262891
20
23.0611809548975
30
0.0
 70
     32
  0
VERTEX
  8
MY3DLAYER
10
-11.1660254037844
20
22.82
30
0.0
 70
     32
  0
VERTEX
  8
MY3DLAYER
10
-11.0071067811865
20
22.6128932188134
30
0.0
 70
     32
  0
VERTEX
  8
MY3DLAYER
10
-10.8
20
22.4539745962155
30
0.0
 70
     32
  0
VERTEX
  8
MY3DLAYER
10
-10.5588190451025
20
22.3540741737109
30
0.0
 70
     32
  0
VERTEX
  8
MY3DLAYER
10
-10.3
20
22.32
30
0.0
 70
     32
  0
SEQEND
  0
POLYLINE
 8
Layer0
 66
     1
70
    8
 10
0.0
 20
 0.0
 30
0.0
  0
VERTEX
  8
MY3DLAYER
10
-3.7
20
-22.88
30
0.0
 70
     32
  0
VERTEX
  8
MY3DLAYER
10
-3.7
20
-15.38
30
0.0
 70
     32
  0
VERTEX
  8
MY3DLAYER
10
-11.6
20
-15.38
30
0.0
 70
     32
  0
VERTEX
  8
MY3DLAYER
10
-11.6
20
-22.88
30
0.0
 70
     32
  0
VERTEX
  8
MY3DLAYER
10
-3.7
20
-22.88
30
0.0
 70
     32
  0
SEQEND
  0
POLYLINE
 8
Layer0
 66
     1
70
    8
 10
0.0
 20
 0.0
 30
0.0
  0
VERTEX
  8
MY3DLAYER
10
-3.7
20
-15.38
30
0.0
 70
     32
  0
VERTEX
  8
MY3DLAYER
10
-3.7
20
-22.88
30
0.0
 70
     32
  0
VERTEX
  8
MY3DLAYER
10
-11.6
20
-22.88
30
0.0
 70
     32
  0
VERTEX
  8
MY3DLAYER
10
-11.6
20
-15.38
30
0.0
 70
     32
  0
VERTEX
  8
MY3DLAYER
10
-3.7
20
-15.38
30
0.0
 70
     32
  0
SEQEND
 0
ENDSEC
 0
EOF
